<svg width="2865" height="2340" xmlns="http://www.w3.org/2000/svg" preserveAspectRatio="xMidYMid meet">
 <g>
  <title>background</title>
  <rect x="-1" y="-1" width="2867" height="2342" id="canvas_background" fill="none"/>
 </g>

 <g>
  <title>Layer 1</title>
  <g id="layer101" fill="#3c8705">
   <path d="m439.141357,1945c-4,-10 0,-117 9,-239c9,-121 26,-358 38,-526l23,-305l46,-55c59,-69 230,-241 287,-287l43,-35l132,0c253,0 395,57 484,192c70,106 71,339 1,476c-92,180 -345,314 -596,314l-67,0l-16,176c-11,117 -20,181 -29,189c-16,15 -267,104 -316,112c-25,4 -34,1 -39,-12zm549,-749c53,-26 115,-83 139,-130c14,-27 23,-66 26,-116c4,-71 3,-78 -22,-107c-15,-17 -43,-37 -62,-43c-43,-15 -153,-9 -163,9c-10,16 -42,391 -35,403c9,14 72,4 117,-16z" id="svg_1" fill="#000000"/>
   <path d="m1646.141357,1951c-12,-8 -12,-40 2,-223c9,-117 31,-420 48,-673c17,-253 32,-462 34,-463c4,-4 363,-92 375,-92c17,0 17,33 4,206c-7,98 -14,195 -14,214l0,34l22,-22c13,-12 84,-98 158,-190l135,-167l125,-11c256,-24 330,-27 330,-15c0,21 -377,453 -470,540l-90,83l112,120c62,67 177,195 256,287c79,91 152,170 163,175c10,5 19,15 19,21c0,29 -246,165 -298,165c-39,0 -92,-58 -306,-333c-93,-119 -172,-217 -176,-217c-25,0 -34,46 -51,236c-9,113 -21,210 -25,214c-9,8 -318,120 -332,120c-4,0 -13,-4 -21,-9z" id="svg_2" fill="#000000"/>
   <path d="m468.141357,845c4,-14 -3,-27 -23,-43l-29,-22l-17,30c-10,16 -22,30 -27,30c-18,0 191,-244 248,-290c17,-13 25,-18 18,-10c-9,10 -6,19 19,42l31,29l43,-42c24,-23 41,-46 38,-51c-3,-4 4,-8 16,-8c15,0 -10,30 -98,118c-65,64 -142,144 -171,177c-29,33 -51,51 -48,40zm36,-58c8,-11 6,-18 -8,-31c-17,-16 -20,-16 -35,-1c-9,9 -16,20 -16,24c0,23 41,29 59,8zm81,-72c37,-38 42,-47 30,-55c-8,-5 -18,-10 -22,-10c-4,0 -10,-10 -14,-22c-6,-21 -10,-19 -55,32l-48,55l27,22c15,12 29,22 32,23c3,0 26,-20 50,-45zm68,-99c5,-25 -12,-39 -37,-31c-20,6 -28,34 -14,49c13,13 48,1 51,-18z" id="svg_3" fill="#000000"/>
   <path d="m419.141357,644c3,-9 6,-19 6,-23c0,-4 11,-13 25,-19c14,-6 25,-19 25,-27c0,-9 4,-14 9,-10c15,8 -8,63 -32,80c-28,19 -41,19 -33,-1z" id="svg_4" fill="#000000"/>
  </g>
  <g id="layer102" fill="#a0a1a0">
   <path d="m989.141357,2240c0,-58 1,-81 3,-52c2,28 2,76 0,105c-2,28 -3,5 -3,-53z" id="svg_5"/>
   <path d="m1875.141357,2282l5,-47l3,39c2,21 0,42 -5,47c-4,4 -6,-13 -3,-39z" id="svg_6"/>
   <path d="m2727.141357,2290c0,-19 2,-27 5,-17c2,9 2,25 0,35c-3,9 -5,1 -5,-18z" id="svg_7"/>
   <path d="m1727.141357,2240c0,-14 2,-19 5,-12c2,6 2,18 0,25c-3,6 -5,1 -5,-13z" id="svg_8"/>
   <path d="m2487.141357,2240c0,-14 2,-19 5,-12c2,6 2,18 0,25c-3,6 -5,1 -5,-13z" id="svg_9"/>
   <path d="m1825.141357,2170c-8,-5 -10,-10 -5,-10c6,0 17,5 25,10c8,5 11,10 5,10c-5,0 -17,-5 -25,-10z" id="svg_10"/>
   <path d="m760.141357,2159c-11,-16 -1,-19 13,-3c7,8 8,14 3,14c-5,0 -13,-5 -16,-11z" id="svg_11"/>
   <path d="m450.141357,930c10,-11 20,-20 23,-20c3,0 -3,9 -13,20c-10,11 -20,20 -23,20c-3,0 3,-9 13,-20z" id="svg_12"/>
   <path d="m400.141357,910c10,-11 20,-20 23,-20c3,0 -3,9 -13,20c-10,11 -20,20 -23,20c-3,0 3,-9 13,-20z" id="svg_13"/>
   <path d="m228.141357,823c9,-2 25,-2 35,0c9,3 1,5 -18,5c-19,0 -27,-2 -17,-5z" id="svg_14"/>
   <path d="m347.141357,760c0,-14 2,-19 5,-12c2,6 2,18 0,25c-3,6 -5,1 -5,-13z" id="svg_15"/>
   <path d="m168.141357,723c9,-2 23,-2 30,0c6,3 -1,5 -18,5c-16,0 -22,-2 -12,-5z" id="svg_16"/>
   <path d="m265.141357,685c0,-7 30,-13 34,-7c3,4 -4,9 -15,9c-10,1 -19,0 -19,-2z" id="svg_17"/>
   <path d="m305.141357,639c0,-5 -4,-8 -8,-5c-5,3 -9,-1 -9,-9c0,-13 3,-13 17,0c9,8 20,12 25,8c4,-5 5,-2 1,5c-9,15 -26,16 -26,1z" id="svg_18"/>
   <path d="m398.141357,603c9,-2 25,-2 35,0c9,3 1,5 -18,5c-19,0 -27,-2 -17,-5z" id="svg_19"/>
   <path d="m276.141357,567c-1,-10 -11,-22 -23,-27c-16,-6 -18,-9 -7,-9c21,-1 43,24 36,41c-3,8 -6,6 -6,-5z" id="svg_20"/>
   <path d="m137.141357,557c-6,-7 -7,-18 -3,-26c7,-10 10,-8 16,8c8,27 2,36 -13,18z" id="svg_21"/>
   <path d="m180.141357,529c-4,-6 -4,-13 -1,-16c3,-4 6,-1 6,6c0,7 5,9 12,5c7,-4 8,-3 4,4c-9,15 -13,15 -21,1z" id="svg_22"/>
   <path d="m3.141357,523c6,-2 18,-2 25,0c6,3 1,5 -13,5c-14,0 -19,-2 -12,-5z" id="svg_23"/>
   <path d="m665.141357,495c13,-14 26,-25 28,-25c3,0 -5,11 -18,25c-13,14 -26,25 -28,25c-3,0 5,-11 18,-25z" id="svg_24"/>
   <path d="m700.141357,490c10,-11 20,-20 23,-20c3,0 -3,9 -13,20c-10,11 -20,20 -23,20c-3,0 3,-9 13,-20z" id="svg_25"/>
   <path d="m800.141357,465c0,-13 3,-21 8,-18c4,2 7,10 7,18c0,8 -3,16 -7,18c-5,3 -8,-5 -8,-18z" id="svg_26"/>
   <path d="m117.141357,445c0,-16 2,-22 5,-12c2,9 2,23 0,30c-3,6 -5,-1 -5,-18z" id="svg_27"/>
   <path d="m157.141357,450c0,-14 2,-19 5,-12c2,6 2,18 0,25c-3,6 -5,1 -5,-13z" id="svg_28"/>
   <path d="m409.141357,445c-18,-14 -18,-14 4,-8c12,3 22,9 22,14c0,12 -3,11 -26,-6z" id="svg_29"/>
   <path d="m940.141357,440c10,-11 20,-20 23,-20c3,0 -3,9 -13,20c-10,11 -20,20 -23,20c-3,0 3,-9 13,-20z" id="svg_30"/>
   <path d="m811.141357,425c-11,-8 -17,-17 -14,-20c2,-3 13,4 23,15c21,23 18,25 -9,5z" id="svg_31"/>
   <path d="m345.141357,424c0,-6 6,-17 14,-23c10,-8 16,-8 25,3c7,9 8,17 2,20c-5,3 -12,0 -14,-6c-4,-10 -8,-9 -16,2c-6,8 -11,10 -11,4z" id="svg_32"/>
   <path d="m455.141357,420c0,-5 5,-10 10,-10c6,0 10,5 10,10c0,6 -4,10 -10,10c-5,0 -10,-4 -10,-10z" id="svg_33"/>
   <path d="m677.141357,385c0,-16 2,-22 5,-12c2,9 2,23 0,30c-3,6 -5,-1 -5,-18z" id="svg_34"/>
   <path d="m410.141357,370c-3,-5 1,-10 10,-10c9,0 13,5 10,10c-3,6 -8,10 -10,10c-2,0 -7,-4 -10,-10z" id="svg_35"/>
   <path d="m477.141357,320c0,-14 2,-19 5,-12c2,6 2,18 0,25c-3,6 -5,1 -5,-13z" id="svg_36"/>
   <path d="m641.141357,315c4,-8 11,-15 16,-15c6,0 5,6 -2,15c-7,8 -14,15 -16,15c-2,0 -1,-7 2,-15z" id="svg_37"/>
   <path d="m709.141357,308l-19,-23l23,19c21,18 27,26 19,26c-2,0 -12,-10 -23,-22z" id="svg_38"/>
   <path d="m534.141357,283c-13,-17 -13,-17 6,-3c11,8 22,16 24,17c2,2 0,3 -6,3c-6,0 -17,-8 -24,-17z" id="svg_39"/>
   <path d="m369.141357,276c-3,-8 -4,-25 -1,-38c3,-17 5,-15 6,10c1,22 5,31 13,26c7,-4 8,-3 4,4c-10,16 -15,15 -22,-2z" id="svg_40"/>
   <path d="m240.141357,270c4,-6 11,-8 16,-5c14,9 11,15 -7,15c-8,0 -12,-5 -9,-10z" id="svg_41"/>
   <path d="m320.141357,251c-3,-5 -1,-12 5,-16c5,-3 10,1 10,9c0,18 -6,21 -15,7z" id="svg_42"/>
   <path d="m272.141357,243c-3,-5 -1,-17 4,-28c6,-17 7,-16 6,8c-1,28 -3,32 -10,20z" id="svg_43"/>
   <path d="m307.141357,195c0,-16 2,-22 5,-12c2,9 2,23 0,30c-3,6 -5,-1 -5,-18z" id="svg_44"/>
   <path d="m657.141357,200c0,-14 2,-19 5,-12c2,6 2,18 0,25c-3,6 -5,1 -5,-13z" id="svg_45"/>
   <path d="m206.141357,168c-1,-31 15,-46 32,-29c9,9 8,11 -5,6c-13,-5 -18,0 -21,22l-4,28l-2,-27z" id="svg_46"/>
   <path d="m277.141357,170c0,-14 2,-19 5,-12c2,6 2,18 0,25c-3,6 -5,1 -5,-13z" id="svg_47"/>
   <path d="m706.141357,168c-1,-9 -9,-22 -18,-27c-10,-6 -13,-11 -7,-11c17,0 37,27 31,42c-4,8 -6,7 -6,-4z" id="svg_48"/>
   <path d="m565.141357,141c0,-7 -4,-10 -8,-7c-5,3 -9,-2 -9,-10c0,-13 2,-13 16,0c8,9 12,19 8,22c-4,4 -7,2 -7,-5z" id="svg_49"/>
   <path d="m510.141357,100c-9,-15 4,-30 23,-29c15,1 15,2 0,6c-21,5 -23,19 -5,26c9,4 9,6 0,6c-6,1 -15,-3 -18,-9z" id="svg_50"/>
   <path d="m564.141357,93c-13,-16 -12,-17 4,-4c15,12 17,11 17,-8c0,-12 -4,-20 -9,-17c-5,4 -7,-3 -4,-15c8,-27 23,-5 23,34c0,31 -11,35 -31,10z" id="svg_51"/>
   <path d="m673.141357,103c6,-2 18,-2 25,0c6,3 1,5 -13,5c-14,0 -19,-2 -12,-5z" id="svg_52"/>
   <path d="m615.141357,76c0,-31 6,-34 13,-6c3,11 1,23 -4,26c-5,3 -9,-6 -9,-20z" id="svg_53"/>
   <path d="m794.141357,53l-24,-28l28,24c15,14 27,26 27,28c0,8 -8,1 -31,-24z" id="svg_54"/>
   <path d="m698.141357,13c9,-2 25,-2 35,0c9,3 1,5 -18,5c-19,0 -27,-2 -17,-5z" id="svg_55"/>
  </g>
  <g id="layer103" fill="#c3ddb1">
   <path d="m1019.141357,2245c0,-55 1,-76 3,-47c2,29 2,74 0,100c-2,26 -3,2 -3,-53z" id="svg_56"/>
   <path d="m1269.141357,2235c0,-55 1,-76 3,-47c2,29 2,74 0,100c-2,26 -3,2 -3,-53z" id="svg_57"/>
   <path d="m2658.141357,2270c0,-36 2,-50 4,-32c2,17 2,47 0,65c-2,17 -4,3 -4,-33z" id="svg_58"/>
   <path d="m1844.141357,2288c4,-28 6,-29 9,-9c2,13 0,27 -5,32c-6,6 -7,-3 -4,-23z" id="svg_59"/>
   <path d="m195.141357,2255c0,-2 14,-10 31,-19c23,-12 28,-12 20,-2c-11,12 -51,29 -51,21z" id="svg_60"/>
   <path d="m1757.141357,2240c0,-14 2,-19 5,-12c2,6 2,18 0,25c-3,6 -5,1 -5,-13z" id="svg_61"/>
   <path d="m2457.141357,2240c0,-14 2,-19 5,-12c2,6 2,18 0,25c-3,6 -5,1 -5,-13z" id="svg_62"/>
   <path d="m793.141357,2232c9,-10 19,-17 21,-16c6,5 -20,34 -30,34c-5,0 -1,-8 9,-18z" id="svg_63"/>
   <path d="m837.141357,2210c0,-14 2,-19 5,-12c2,6 2,18 0,25c-3,6 -5,1 -5,-13z" id="svg_64"/>
   <path d="m796.141357,2177c-13,-21 -12,-21 5,-5c10,10 16,20 13,22c-3,3 -11,-5 -18,-17z" id="svg_65"/>
   <path d="m370.141357,850c10,-11 20,-20 23,-20c3,0 -3,9 -13,20c-10,11 -20,20 -23,20c-3,0 3,-9 13,-20z" id="svg_66"/>
   <path d="m505.141357,857c0,-2 15,-16 33,-33l32,-29l-29,33c-28,30 -36,37 -36,29z" id="svg_67"/>
   <path d="m515.141357,815c19,-19 36,-35 39,-35c3,0 -10,16 -29,35c-19,19 -36,35 -39,35c-3,0 10,-16 29,-35z" id="svg_68"/>
   <path d="m440.141357,820c-10,-11 -22,-17 -28,-13c-6,3 -7,1 -3,-5c5,-9 14,-7 31,5c14,10 25,21 25,26c0,11 -6,8 -25,-13z" id="svg_69"/>
   <path d="m145.141357,805c-14,-8 -20,-14 -14,-15c5,0 19,7 30,15c24,18 16,19 -16,0z" id="svg_70"/>
   <path d="m395.141357,780c17,-22 34,-40 37,-40c2,0 -10,18 -27,40c-17,22 -34,40 -37,40c-2,0 10,-18 27,-40z" id="svg_71"/>
   <path d="m495.141357,771c0,-8 -8,-11 -20,-8c-11,3 -18,1 -14,-4c3,-5 11,-9 19,-9c16,0 30,18 21,27c-3,4 -6,1 -6,-6z" id="svg_72"/>
   <path d="m675.141357,678c57,-60 106,-108 107,-108c8,0 -5,13 -104,110l-108,105l105,-107z" id="svg_73"/>
   <path d="m518.141357,737c-17,-20 -17,-21 0,-8c16,13 22,10 53,-20l34,-33l-20,-20l-20,-20l-37,34l-38,35l38,-41l39,-41l24,24l25,25l-40,43l-40,43l-18,-21z" id="svg_74"/>
   <path d="m670.141357,650c55,-55 102,-100 105,-100c2,0 -40,45 -95,100c-55,55 -102,100 -105,100c-2,0 40,-45 95,-100z" id="svg_75"/>
   <path d="m455.141357,707c0,-2 15,-16 33,-33l32,-29l-29,33c-28,30 -36,37 -36,29z" id="svg_76"/>
   <path d="m233.141357,683c6,-2 18,-2 25,0c6,3 1,5 -13,5c-14,0 -19,-2 -12,-5z" id="svg_77"/>
   <path d="m550.141357,600c10,-11 20,-20 23,-20c3,0 -3,9 -13,20c-10,11 -20,20 -23,20c-3,0 3,-9 13,-20z" id="svg_78"/>
   <path d="m456.141357,583c7,-12 15,-20 18,-17c3,2 -3,12 -13,22c-17,16 -18,16 -5,-5z" id="svg_79"/>
   <path d="m676.141357,598c2,-2 22,-19 44,-38l40,-35l-34,38c-19,20 -39,37 -45,37c-5,0 -7,-1 -5,-2z" id="svg_80"/>
   <path d="m349.141357,565c-3,-8 -4,-20 -2,-27c3,-7 7,-1 10,15c6,29 1,36 -8,12z" id="svg_81"/>
   <path d="m815.141357,547c0,-2 15,-16 33,-33l32,-29l-29,33c-28,30 -36,37 -36,29z" id="svg_82"/>
   <path d="m385.141357,470c8,-5 22,-9 30,-9c10,0 8,3 -5,9c-27,12 -43,12 -25,0z" id="svg_83"/>
   <path d="m441.141357,395c-11,-8 -15,-15 -9,-15c6,0 16,7 23,15c16,19 11,19 -14,0z" id="svg_84"/>
   <path d="m928.141357,369c-2,-23 3,-25 10,-4c4,8 3,16 -1,19c-4,3 -9,-4 -9,-15z" id="svg_85"/>
   <path d="m391.141357,345c-9,-26 -7,-32 5,-12c6,10 9,21 6,23c-2,3 -7,-2 -11,-11z" id="svg_86"/>
   <path d="m443.141357,317c-3,-19 -2,-25 4,-19c6,6 8,18 6,28c-3,14 -5,12 -10,-9z" id="svg_87"/>
   <path d="m238.141357,323c9,-2 23,-2 30,0c6,3 -1,5 -18,5c-16,0 -22,-2 -12,-5z" id="svg_88"/>
   <path d="m628.141357,287c-3,-6 -1,-7 5,-3c5,3 12,1 14,-6c3,-8 6,-7 10,3c7,17 -19,22 -29,6z" id="svg_89"/>
   <path d="m691.141357,277c3,-8 11,-14 19,-14c20,0 19,4 -5,17c-15,8 -18,8 -14,-3z" id="svg_90"/>
   <path d="m837.141357,240c0,-19 2,-27 5,-17c2,9 2,25 0,35c-3,9 -5,1 -5,-18z" id="svg_91"/>
   <path d="m531.141357,174c-11,-8 -16,-14 -10,-14c13,0 39,18 34,24c-3,2 -14,-2 -24,-10z" id="svg_92"/>
   <path d="m187.141357,155c0,-16 2,-22 5,-12c2,9 2,23 0,30c-3,6 -5,-1 -5,-18z" id="svg_93"/>
   <path d="m372.141357,139c12,-12 24,-21 27,-18c2,2 -8,13 -22,23l-27,19l22,-24z" id="svg_94"/>
   <path d="m826.141357,103c-10,-26 -10,-27 4,-9c8,11 15,23 15,28c0,15 -7,8 -19,-19z" id="svg_95"/>
   <path d="m105.141357,105c0,-8 4,-15 10,-15c5,0 7,7 4,15c-4,8 -8,15 -10,15c-2,0 -4,-7 -4,-15z" id="svg_96"/>
   <path d="m749.141357,64c-18,-14 -18,-15 4,-4c12,6 22,13 22,15c0,8 -5,6 -26,-11z" id="svg_97"/>
   <path d="m535.141357,26c0,-8 4,-17 9,-20c5,-4 7,3 4,14c-6,23 -13,26 -13,6z" id="svg_98"/>
  </g>
  <g id="layer104" fill="#e9eae9">
   <path d="m155.141357,2240c0,-82 3,-100 15,-100c12,0 15,18 15,100c0,82 -3,100 -15,100c-12,0 -15,-18 -15,-100z" id="svg_99" fill="#000000"/>
   <path d="m415.141357,2333c-1,-24 66,-193 76,-193c14,0 16,5 54,118c22,62 25,82 15,82c-8,0 -23,-28 -35,-67c-13,-38 -26,-71 -29,-76c-4,-4 -19,25 -33,65c-14,40 -30,74 -36,76c-7,2 -12,0 -12,-5z" id="svg_100" fill="#000000"/>
   <path d="m715.141357,2240c0,-82 3,-100 15,-100c12,0 15,18 15,100c0,82 -3,100 -15,100c-12,0 -15,-18 -15,-100z" id="svg_101" fill="#000000"/>
   <path d="m802.141357,2305c-9,-19 -21,-35 -27,-35c-18,0 -11,-15 13,-25c16,-7 22,-18 22,-40c0,-22 -6,-33 -22,-40c-13,-5 -23,-13 -23,-18c0,-10 39,1 58,15c17,15 15,68 -5,90c-14,16 -14,20 -1,36c22,25 30,52 15,52c-8,0 -21,-16 -30,-35z" id="svg_102" fill="#000000"/>
   <path d="m995.141357,2240c0,-60 4,-100 10,-100c6,0 10,40 10,100c0,60 -4,100 -10,100c-6,0 -10,-40 -10,-100z" id="svg_103" fill="#000000"/>
   <path d="m1061.141357,2299c-22,-32 -27,-47 -22,-74c4,-18 13,-38 21,-45c8,-7 15,-19 15,-26c0,-8 9,-14 20,-14c20,0 20,0 -1,38c-11,20 -25,44 -31,53c-9,13 -6,23 14,50c37,50 41,59 26,59c-7,0 -26,-19 -42,-41z" id="svg_104" fill="#000000"/>
   <path d="m1273.141357,2239c2,-71 7,-99 15,-96c8,2 13,37 15,100c2,88 1,97 -15,97c-16,0 -18,-9 -15,-101z" id="svg_105" fill="#000000"/>
   <path d="m1445.141357,2240c0,-82 3,-100 15,-100c12,0 15,18 15,100c0,82 -3,100 -15,100c-12,0 -15,-18 -15,-100z" id="svg_106" fill="#000000"/>
   <path d="m1547.141357,2328c-5,-7 -13,-23 -16,-35c-4,-11 -13,-27 -21,-33c-8,-7 -15,-27 -15,-44l1,-31l25,43c14,23 29,42 33,42c3,0 6,-28 6,-62c0,-38 4,-63 12,-65c8,-3 13,25 15,96c3,88 1,101 -13,101c-9,0 -21,-6 -27,-12z" id="svg_107" fill="#000000"/>
   <path d="m1761.141357,2317c-21,-21 -26,-36 -26,-77c0,-42 5,-56 27,-78c17,-17 28,-22 31,-14c2,6 -3,19 -11,27c-27,27 -30,70 -8,116c25,51 21,60 -13,26z" id="svg_108" fill="#000000"/>
   <path d="m1815.141357,2331c0,-5 9,-11 20,-14c14,-3 20,-14 20,-31c0,-19 -5,-26 -20,-26c-11,0 -20,-4 -20,-10c0,-5 14,-10 30,-10c28,0 30,2 30,40c0,29 -5,42 -19,50c-24,12 -41,13 -41,1z" id="svg_109" fill="#000000"/>
   <path d="m2025.141357,2239c0,-76 3,-100 13,-97c8,3 13,35 15,101c2,82 0,97 -13,97c-12,0 -15,-17 -15,-101z" id="svg_110" fill="#000000"/>
   <path d="m2070.141357,2331c3,-5 19,-12 36,-16c33,-7 49,-36 49,-85c0,-31 -42,-70 -76,-70c-13,0 -15,-3 -7,-11c8,-8 21,-8 48,1c96,32 73,190 -28,190c-15,0 -26,-4 -22,-9z" id="svg_111" fill="#000000"/>
   <path d="m2367.141357,2333c-19,-7 -42,-58 -42,-93c0,-37 23,-85 45,-94c34,-13 38,-5 12,22c-21,22 -27,38 -27,72c0,34 6,50 27,72c25,26 19,35 -15,21z" id="svg_112" fill="#000000"/>
   <path d="m2415.141357,2330c0,-6 7,-13 15,-16c8,-3 19,-21 25,-40c14,-40 1,-89 -27,-110c-24,-17 -10,-29 17,-14c27,14 40,49 40,105c0,35 -5,48 -26,64c-29,23 -44,27 -44,11z" id="svg_113" fill="#000000"/>
   <path d="m2631.141357,2324c-8,-20 -8,-132 0,-161c7,-27 32,-30 40,-5c3,9 14,38 25,64c10,26 19,57 18,70c0,15 -7,6 -21,-29c-11,-29 -25,-53 -30,-53c-6,0 -8,28 -6,65c2,44 -1,65 -8,65c-7,0 -15,-7 -18,-16z" id="svg_114" fill="#000000"/>
   <path d="m2785.141357,2273l-1,-68l-24,50c-34,70 -33,24 1,-54c40,-92 54,-82 54,39c0,82 -3,100 -15,100c-12,0 -15,-14 -15,-67z" id="svg_115" fill="#000000"/>
   <path d="m475.141357,2290c0,-5 6,-10 14,-10c8,0 18,5 21,10c3,6 -3,10 -14,10c-12,0 -21,-4 -21,-10z" id="svg_116" fill="#000000"/>
   <path d="m205.141357,2261c0,-3 10,-11 23,-16c16,-7 22,-18 22,-40c0,-22 -6,-33 -22,-40c-13,-5 -23,-13 -23,-18c0,-10 39,1 58,15c6,6 12,25 12,43c0,18 -6,37 -12,42c-17,13 -58,23 -58,14z" id="svg_117" fill="#000000"/>
   <path d="m1825.141357,2160c-8,-5 -12,-12 -8,-15c10,-10 49,5 43,16c-8,11 -16,11 -35,-1z" id="svg_118" fill="#000000"/>
   <path d="m425.141357,939c0,-31 336,-381 477,-496c23,-19 47,-33 54,-31c6,2 -23,31 -64,65c-109,90 -264,241 -349,340c-40,47 -83,98 -95,112c-17,20 -22,22 -23,10z" id="svg_119" fill="#000000"/>
   <path d="m367.141357,907l-23,-13l37,-47c37,-48 38,-48 57,-28c20,19 20,20 -12,60c-18,23 -33,41 -34,41c-1,-1 -12,-6 -25,-13z" id="svg_120" fill="#000000"/>
   <path d="m281.141357,875c-10,-8 -44,-19 -75,-25c-125,-26 -197,-102 -169,-180c6,-20 21,-33 44,-42c44,-16 44,-32 -1,-24c-20,4 -35,3 -35,-3c0,-12 56,-25 70,-16c16,10 12,-4 -12,-35c-17,-23 -19,-33 -10,-42c8,-8 14,-5 21,13c9,26 38,55 46,47c3,-2 -5,-22 -16,-44c-47,-90 1,-194 91,-194c40,0 53,-13 24,-24c-9,-3 -36,-6 -60,-6c-24,0 -44,-4 -44,-9c0,-15 36,-23 77,-16l38,6l-24,-20c-13,-12 -35,-24 -50,-27c-44,-10 -54,-14 -47,-21c4,-4 22,-6 41,-5c33,3 34,2 28,-33c-7,-43 12,-48 20,-5c7,31 34,80 46,80c3,0 6,-23 6,-52c0,-30 5,-53 12,-55c8,-3 10,8 6,34c-2,21 1,52 8,68l12,30l8,-49c13,-84 75,-124 161,-104c24,5 47,13 53,19c5,5 16,9 24,9c19,0 -13,-37 -40,-45c-11,-4 -19,-11 -19,-16c0,-15 36,-10 50,6c20,24 29,18 32,-20c2,-20 7,-36 13,-38c6,-1 9,14 7,37c-4,45 13,42 23,-5c12,-52 100,-65 147,-22c27,24 62,96 77,156c6,27 18,59 27,71c14,22 11,26 -98,114c-178,143 -330,298 -437,445c-23,31 -45,57 -49,57c-4,0 -15,-7 -26,-15zm42,-65c61,-37 32,-108 -60,-150c-65,-30 -118,-25 -118,11c0,23 31,41 51,28c17,-11 89,-12 89,-1c0,4 -15,8 -32,9c-18,1 -49,5 -69,8c-31,6 -39,3 -52,-15c-9,-12 -13,-29 -10,-36c7,-19 -22,-18 -41,2c-9,8 -16,27 -16,42c1,88 171,155 258,102zm147,-165c42,-41 27,-149 -21,-161c-57,-15 -104,69 -54,96c22,12 55,0 63,-22c2,-7 7,-10 10,-7c4,3 0,15 -9,27c-29,42 -104,20 -104,-31c0,-48 11,-64 51,-76c36,-11 46,-31 14,-31c-7,0 -15,-6 -18,-14c-10,-24 -54,-48 -77,-41c-22,7 -28,50 -7,57c18,7 37,-2 37,-18c0,-8 5,-14 10,-14c22,0 9,41 -16,50c-42,16 -64,-3 -64,-55l0,-45l-38,0c-69,0 -105,57 -83,130c15,50 25,56 53,31c28,-27 34,-27 69,8c18,19 27,35 23,46c-4,9 1,24 10,34c11,12 13,21 7,25c-13,8 -45,-40 -46,-67c0,-24 -26,-42 -49,-34c-24,9 -20,35 12,69c62,68 180,91 227,43zm170,-171c22,-9 45,-57 45,-97c0,-83 -97,-199 -135,-161c-22,22 -3,50 39,58c31,6 65,31 54,41c-2,2 -17,-2 -32,-10c-16,-8 -36,-15 -45,-15c-9,0 -22,-5 -29,-12c-17,-17 -15,-77 3,-84c24,-9 18,-21 -16,-33c-42,-14 -100,-13 -120,2c-25,19 -39,52 -39,91c0,40 6,43 38,21c19,-14 24,-14 47,1c25,16 31,37 19,68c-7,17 -44,22 -44,6c0,-5 7,-10 16,-10c21,0 15,-44 -7,-48c-18,-3 -49,22 -49,40c0,6 16,25 35,44c19,18 35,37 35,43c0,25 17,8 26,-26c16,-63 99,-72 129,-13c15,28 14,31 -13,61c-18,21 -31,28 -36,21c-3,-6 3,-16 14,-22c38,-20 20,-80 -25,-80c-55,0 -74,83 -25,107c27,14 88,17 115,7zm180,-157c39,-60 21,-168 -39,-231c-39,-42 -75,-47 -106,-14c-26,29 -25,38 5,38c37,0 60,40 46,82c-5,18 -12,44 -14,58c-3,22 -4,23 -12,7c-4,-11 -2,-35 5,-58c12,-35 11,-42 -2,-56c-45,-44 -66,43 -28,116c39,77 113,106 145,58z" id="svg_121" fill="#000000"/>
   <path d="m462.141357,784c-9,-10 2,-24 19,-24c8,0 14,7 14,15c0,15 -21,21 -33,9z" id="svg_122" fill="#000000"/>
   <path d="m510.141357,725c-19,-15 -18,-16 17,-52c37,-36 37,-37 58,-18l20,19l-32,33c-36,38 -36,38 -63,18z" id="svg_123" fill="#000000"/>
   <path d="m605.141357,616c0,-17 27,-29 35,-16c4,6 3,15 0,20c-9,15 -35,12 -35,-4z" id="svg_124" fill="#000000"/>
   <path d="m663.141357,570c-16,-18 -15,-21 25,-59c37,-36 43,-38 49,-22c4,11 11,22 17,25c9,6 -59,78 -70,75c-2,0 -12,-9 -21,-19z" id="svg_125" fill="#000000"/>
   <path d="m30.141357,550c-17,-19 -17,-20 1,-20c27,0 48,16 40,29c-10,16 -20,14 -41,-9z" id="svg_126" fill="#000000"/>
   <path d="m770.141357,480c-10,-16 16,-43 28,-31c11,11 2,41 -12,41c-5,0 -13,-5 -16,-10z" id="svg_127" fill="#000000"/>
   <path d="m824.141357,427c-16,-21 -15,-23 34,-59c53,-40 61,-41 70,-8c4,15 -6,29 -37,55c-24,19 -45,35 -47,35c-2,-1 -11,-11 -20,-23z" id="svg_128" fill="#000000"/>
   <path d="m136.141357,154c-20,-25 -28,-54 -16,-54c4,0 19,7 35,15c21,11 30,23 30,40c0,33 -23,32 -49,-1z" id="svg_129" fill="#000000"/>
   <path d="m543.141357,30c-3,-16 -3,-30 -2,-30c9,0 34,34 34,46c0,27 -28,14 -32,-16z" id="svg_130" fill="#000000"/>
  </g>
 </g>
</svg>