<?xml version="1.0" encoding="utf-8"?>
<!-- Generator: Adobe Illustrator 22.1.0, SVG Export Plug-In . SVG Version: 6.00 Build 0)  -->
<svg version="1.1" id="Capa_1" xmlns="http://www.w3.org/2000/svg" xmlns:xlink="http://www.w3.org/1999/xlink" x="0px" y="0px"
	 viewBox="0 0 930 650" style="enable-background:new 0 0 930 650;" xml:space="preserve">
<style type="text/css">
	.st0{fill:#383838;}
	.st1{fill:#A5A3A3;}
	.st2{fill:#FFFFFF;}
	.st3{fill:none;stroke:#FFFFFF;stroke-miterlimit:10;}
	.st4{fill:none;stroke:#FFFFFF;stroke-width:1.7676;stroke-miterlimit:10;}
	.st5{fill:none;stroke:#FFFFFF;stroke-width:1.0026;stroke-miterlimit:10;}
	.st6{fill:#55AF32;}
	.st7{fill:#804092;}
	.st8{fill:#602573;}
	.st9{fill:#F3E600;}
	.st10{fill:none;stroke:#FFFFFF;stroke-width:1.0103;stroke-miterlimit:10;}
	.st11{fill:none;stroke:#F3E600;stroke-width:1.5;stroke-miterlimit:10;}
	.st12{fill:#010202;}
	.st13{fill:#CC1517;}
	.st14{stroke:#000000;stroke-width:0.5;stroke-miterlimit:10;}
	.st15{fill:none;stroke:#F3E600;stroke-miterlimit:10;}
	.st16{fill:none;stroke:#F3E600;stroke-miterlimit:10;stroke-dasharray:5.9141,5.9141;}
	.st17{fill:none;stroke:#F3E600;stroke-miterlimit:10;stroke-dasharray:5.885,5.885;}
	.st18{fill:#258F37;}
</style>
<rect class="st0" width="930.5" height="650"/>
<rect y="642.1" class="st1" width="614.6" height="7.9"/>
<rect x="666.3" y="642.1" class="st1" width="263.7" height="7.9"/>
<rect x="0" y="0" class="st1" width="9.4" height="649.6"/>
<rect x="921.3" y="0" class="st1" width="9.1" height="650"/>
<g>
	<g>
		<rect x="1308.1" y="321.1" class="st2" width="72.5" height="3.1"/>
		<rect x="1378.5" y="321.1" class="st2" width="89.2" height="3.1"/>
	</g>
	<rect x="1464.3" y="313.7" class="st2" width="3.4" height="16.3"/>
	<rect x="1306.4" y="314.2" class="st2" width="3.4" height="16.3"/>
</g>
<g>
	<rect x="1285.9" y="63.5" class="st2" width="7.1" height="262.3"/>
	<rect x="1285.9" y="311" class="st2" width="7.1" height="206.2"/>
</g>
<rect x="1204" y="29.6" class="st3" width="68.6" height="571"/>
<rect x="1306.4" y="29.6" class="st3" width="68.6" height="269.2"/>
<rect x="1121.3" y="221.4" class="st4" width="60" height="390.9"/>
<polyline class="st3" points="205.2,97.7 205.2,7.7 160.2,7.7 "/>
<line class="st3" x1="160.2" y1="97.1" x2="160.2" y2="7.1"/>
<line class="st5" x1="99.9" y1="503.5" x2="9.4" y2="503.5"/>
<line class="st5" x1="99.9" y1="548.5" x2="9.4" y2="548.5"/>
<polyline class="st3" points="250.2,97.7 250.2,7.7 205.2,7.7 "/>
<polyline class="st3" points="295.2,97.7 295.2,7.7 250.2,7.7 "/>
<polyline class="st3" points="340.2,97.7 340.2,7.7 295.2,7.7 "/>
<polyline class="st3" points="385.2,97.7 385.2,7.7 340.2,7.7 "/>
<polyline class="st3" points="430.2,97.7 430.2,7.7 385.2,7.7 "/>
<polyline class="st3" points="475.2,97.7 475.2,7.7 430.2,7.7 "/>
<polyline class="st3" points="520.2,97.7 520.2,7.7 475.2,7.7 "/>
<polyline class="st3" points="565.2,97.7 565.2,7.7 520.2,7.7 "/>
<rect x="-147.4" y="124.2" class="st6" width="45" height="90"/>
<polyline class="st3" points="205.2,231.6 205.2,321.6 250.2,321.6 "/>
<polyline class="st3" points="250.2,231.6 250.2,321.6 295.2,321.6 "/>
<polyline class="st3" points="295.2,231.6 295.2,321.6 340.2,321.6 "/>
<polyline class="st3" points="340.2,231.6 340.2,321.6 385.2,321.6 "/>
<polyline class="st3" points="385.2,231.6 385.2,321.6 430.2,321.6 "/>
<polyline class="st3" points="430.2,231.6 430.2,321.6 475.2,321.6 "/>
<polyline class="st3" points="475.2,231.6 475.2,321.6 520.2,321.6 "/>
<polyline class="st3" points="520.2,231.6 520.2,321.6 565.2,321.6 "/>
<polyline class="st3" points="205.2,321.6 160.2,321.6 160.2,231.6 "/>
<polyline class="st3" points="520.2,411.6 520.2,321.6 565.2,321.6 "/>
<polyline class="st3" points="475.2,411.6 475.2,321.6 520.2,321.6 "/>
<polyline class="st3" points="430.2,411.6 430.2,321.6 475.2,321.6 "/>
<polyline class="st3" points="385.2,411.6 385.2,321.6 430.2,321.6 "/>
<polyline class="st3" points="340.2,411.6 340.2,321.6 385.2,321.6 "/>
<polyline class="st3" points="295.2,411.6 295.2,321.6 340.2,321.6 "/>
<polyline class="st3" points="250.2,411.6 250.2,321.6 295.2,321.6 "/>
<polyline class="st3" points="205.2,411.6 205.2,321.6 250.2,321.6 "/>
<polyline class="st3" points="564.8,231.6 564.8,321.6 609.8,321.6 "/>
<line class="st3" x1="609.8" y1="231.6" x2="609.8" y2="321.6"/>
<polyline class="st3" points="564.8,411.6 564.8,321.6 609.8,321.6 "/>
<line class="st3" x1="609.8" y1="411.6" x2="609.8" y2="321.6"/>
<polyline class="st3" points="160.2,411.6 160.2,321.6 205.2,321.6 "/>
<polyline class="st3" points="610.2,97.7 610.2,7.7 565.2,7.7 "/>
<rect x="1018.1" y="607.9" class="st7" width="44.8" height="22.5"/>
<rect x="1018.1" y="562.9" class="st7" width="44.8" height="22.5"/>
<rect x="1018" y="652.9" class="st7" width="44.9" height="22.5"/>
<rect x="1018.1" y="630.4" class="st8" width="44.8" height="22.5"/>
<rect x="1018.1" y="585.4" class="st8" width="44.8" height="22.5"/>
<rect x="1018.1" y="517.9" class="st7" width="44.8" height="22.5"/>
<rect x="1018.1" y="472.9" class="st7" width="44.8" height="22.5"/>
<rect x="1018.1" y="540.4" class="st8" width="44.8" height="22.5"/>
<rect x="1018.1" y="495.4" class="st8" width="44.8" height="22.5"/>
<rect x="1018.1" y="427.9" class="st7" width="44.8" height="22.5"/>
<rect x="1018.1" y="382.9" class="st7" width="44.8" height="22.5"/>
<rect x="1018.1" y="450.4" class="st8" width="44.8" height="22.5"/>
<rect x="1018.1" y="405.4" class="st8" width="44.8" height="22.5"/>
<rect x="1018" y="338" class="st7" width="44.8" height="22.5"/>
<rect x="1017.9" y="293" class="st7" width="44.9" height="22.5"/>
<rect x="1017.9" y="248" class="st7" width="44.9" height="22.5"/>
<rect x="1017.9" y="203" class="st7" width="44.9" height="22.5"/>
<rect x="1018" y="157.9" class="st7" width="44.9" height="22.5"/>
<rect x="1018" y="360.5" class="st8" width="44.8" height="22.5"/>
<rect x="1017.9" y="315.5" class="st8" width="44.9" height="22.5"/>
<rect x="1017.9" y="270.5" class="st8" width="44.9" height="22.5"/>
<rect x="1017.9" y="225.5" class="st8" width="44.9" height="22.5"/>
<rect x="1017.9" y="180.5" class="st8" width="44.9" height="22.5"/>
<rect x="596.1" y="714.2" class="st7" width="22.5" height="44.8"/>
<rect x="558.9" y="675.5" class="st7" width="22.5" height="44.8"/>
<rect x="551.1" y="714.2" class="st7" width="22.5" height="44.8"/>
<rect x="618.6" y="714.2" class="st8" width="22.5" height="44.8"/>
<rect x="573.6" y="714.2" class="st8" width="22.5" height="44.8"/>
<rect x="506.1" y="714.2" class="st7" width="22.5" height="44.8"/>
<rect x="461.1" y="714.2" class="st7" width="22.5" height="44.8"/>
<rect x="528.6" y="714.2" class="st8" width="22.5" height="44.8"/>
<rect x="483.6" y="714.2" class="st8" width="22.5" height="44.8"/>
<rect x="416.1" y="714.2" class="st7" width="22.5" height="44.8"/>
<rect x="371.1" y="714.2" class="st7" width="22.5" height="44.9"/>
<rect x="326.1" y="714.2" class="st7" width="22.5" height="44.9"/>
<rect x="281.1" y="714.2" class="st7" width="22.5" height="44.9"/>
<rect x="236.1" y="714.2" class="st7" width="22.5" height="44.9"/>
<rect x="438.6" y="714.2" class="st8" width="22.5" height="44.8"/>
<polyline class="st3" points="895.4,585.6 895.4,641.6 921.4,641.6 "/>
<polyline class="st3" points="839.3,585.6 839.3,641.6 867.4,641.6 "/>
<rect x="747.7" y="742.6" class="st9" width="39.4" height="62.6"/>
<polyline class="st3" points="867.4,585.6 867.4,641.6 895.4,641.6 "/>
<polyline class="st3" points="783.1,585.6 783.1,641.6 811.2,641.6 "/>
<polyline class="st3" points="726.9,585.6 726.9,641.6 755,641.6 "/>
<polyline class="st3" points="670.7,585.7 670.7,641.6 698.8,641.6 "/>
<polyline class="st3" points="811.2,585.6 811.2,641.6 839.3,641.6 "/>
<polyline class="st3" points="755,585.6 755,641.6 783.1,641.6 "/>
<polyline class="st3" points="698.8,585.7 698.8,641.6 726.9,641.6 "/>
<polyline class="st3" points="921.4,7.6 895.4,7.6 895.4,63.5 "/>
<polyline class="st3" points="867.3,7.6 839.2,7.6 839.2,63.5 "/>
<polyline class="st3" points="895.4,7.6 867.3,7.6 867.3,63.5 "/>
<polyline class="st3" points="811.2,7.6 783.1,7.6 783.1,63.5 "/>
<polyline class="st3" points="755,7.6 726.9,7.6 726.9,63.5 "/>
<polyline class="st3" points="839.2,7.6 811.2,7.6 811.2,63.5 "/>
<polyline class="st3" points="783.1,7.6 755,7.6 755,63.5 "/>
<polyline class="st3" points="726.9,7.6 698.8,7.6 698.8,63.6 "/>
<polyline class="st3" points="700,7.6 671.9,7.6 671.9,63.5 "/>
<polyline class="st3" points="921.4,439.1 895.4,439.1 895.4,495 "/>
<polyline class="st3" points="867.3,439.1 839.2,439.1 839.2,495 "/>
<polyline class="st3" points="895.4,439.1 867.3,439.1 867.3,495 "/>
<polyline class="st3" points="811.2,439.1 783.1,439.1 783.1,495 "/>
<polyline class="st3" points="755,439.1 726.9,439.1 726.9,495 "/>
<polyline class="st3" points="839.2,439.1 811.2,439.1 811.2,495 "/>
<polyline class="st3" points="783.1,439.1 755,439.1 755,495 "/>
<polyline class="st3" points="726.9,439.2 698.8,439.2 698.8,495.1 "/>
<polyline class="st3" points="726.9,383.2 726.9,439.1 698.8,439.1 "/>
<line class="st3" x1="698.8" y1="383.2" x2="698.8" y2="439.1"/>
<polyline class="st3" points="783.1,383.2 783.1,439.1 755,439.1 "/>
<polyline class="st3" points="755,383.2 755,439.1 726.9,439.1 "/>
<polyline class="st3" points="839.2,383.2 839.2,439.1 811.2,439.1 "/>
<polyline class="st3" points="895.4,383.2 895.4,439.1 867.3,439.1 "/>
<polyline class="st3" points="811.2,383.2 811.2,439.1 783.1,439.1 "/>
<polyline class="st3" points="867.3,383.2 867.3,439.1 839.2,439.1 "/>
<polyline class="st3" points="921.4,223.1 894.8,223 894.8,279 "/>
<polyline class="st3" points="866.7,223 838.7,223 838.7,279 "/>
<polyline class="st3" points="894.8,223 866.8,223 866.8,279 "/>
<polyline class="st3" points="810.6,223 782.5,223 782.5,279 "/>
<polyline class="st3" points="754.4,223 726.3,223 726.3,279 "/>
<polyline class="st3" points="838.7,223 810.6,223 810.6,279 "/>
<polyline class="st3" points="782.5,223 754.4,223 754.4,279 "/>
<polyline class="st3" points="726.3,223.1 698.2,223.1 698.2,279.1 "/>
<polyline class="st3" points="726.3,223.1 698.2,223.1 698.2,167.1 "/>
<polyline class="st3" points="782.5,223.1 754.4,223.1 754.4,167.1 "/>
<polyline class="st3" points="754.4,223.1 726.3,223.1 726.3,167.1 "/>
<polyline class="st3" points="838.7,223.1 810.6,223.1 810.6,167.1 "/>
<polyline class="st3" points="894.8,223.1 866.8,223.1 866.8,167.1 "/>
<polyline class="st3" points="810.6,223.1 782.5,223.1 782.5,167.1 "/>
<polyline class="st3" points="866.7,223.1 838.7,223.1 838.7,167.1 "/>
<polyline class="st10" points="921.4,223.1 894.8,223.1 894.8,167.1 "/>
<rect x="393.6" y="714.2" class="st8" width="22.5" height="44.9"/>
<rect x="348.6" y="714.2" class="st8" width="22.5" height="44.9"/>
<rect x="303.6" y="714.2" class="st8" width="22.5" height="44.9"/>
<rect x="258.6" y="714.2" class="st8" width="22.5" height="44.9"/>
<rect x="1017.9" y="112.9" class="st7" width="44.9" height="22.5"/>
<rect x="1017.9" y="135.4" class="st8" width="44.9" height="22.5"/>
<rect x="1017.9" y="90.4" class="st8" width="44.9" height="22.5"/>
<polyline class="st3" points="205.5,641.6 250.5,641.6 250.5,551.6 "/>
<polyline class="st3" points="250.5,641.6 295.5,641.6 295.5,551.6 "/>
<polyline class="st3" points="295.5,641.6 340.5,641.6 340.5,551.6 "/>
<polyline class="st3" points="340.5,641.6 385.5,641.6 385.5,551.6 "/>
<polyline class="st3" points="385.5,641.6 430.5,641.6 430.5,551.6 "/>
<polyline class="st3" points="430.5,641.6 475.5,641.6 475.5,551.6 "/>
<polyline class="st3" points="475.5,641.6 520.5,641.6 520.5,551.6 "/>
<polyline class="st3" points="520.5,641.6 565.5,641.6 565.5,551.6 "/>
<polyline class="st3" points="565.5,641.6 610.5,641.6 610.5,551.6 "/>
<polyline class="st3" points="205.5,551.6 205.5,641.6 160.5,641.6 "/>
<line class="st3" x1="160.5" y1="552.1" x2="160.5" y2="642.1"/>
<line class="st5" x1="99.9" y1="143.5" x2="9.4" y2="143.5"/>
<line class="st5" x1="99.9" y1="188.5" x2="9.4" y2="188.5"/>
<line class="st5" x1="99.9" y1="233.5" x2="9.4" y2="233.5"/>
<line class="st5" x1="99.9" y1="278.5" x2="9.4" y2="278.5"/>
<line class="st5" x1="99.9" y1="323.5" x2="9.4" y2="323.5"/>
<line class="st5" x1="99.9" y1="368.5" x2="9.4" y2="368.5"/>
<line class="st5" x1="99.9" y1="413.5" x2="9.4" y2="413.5"/>
<line class="st5" x1="99.9" y1="458.5" x2="9.4" y2="458.5"/>
<line class="st5" x1="9.4" y1="98.5" x2="99.9" y2="98.5"/>
<line class="st3" x1="99.9" y1="95.4" x2="99.9" y2="101.7"/>
<line class="st3" x1="163.3" y1="97.1" x2="157" y2="97.1"/>
<line class="st3" x1="208.3" y1="97.1" x2="202" y2="97.1"/>
<line class="st3" x1="253.3" y1="97.1" x2="247" y2="97.1"/>
<line class="st3" x1="298.3" y1="97.1" x2="292" y2="97.1"/>
<line class="st3" x1="343.3" y1="97.1" x2="337" y2="97.1"/>
<line class="st3" x1="388.3" y1="97.1" x2="382" y2="97.1"/>
<line class="st3" x1="433.3" y1="97.1" x2="427" y2="97.1"/>
<line class="st3" x1="478.3" y1="97.1" x2="472" y2="97.1"/>
<line class="st3" x1="523.3" y1="97.1" x2="517" y2="97.1"/>
<line class="st3" x1="568.3" y1="97.1" x2="562" y2="97.1"/>
<line class="st3" x1="613.3" y1="97.1" x2="607" y2="97.1"/>
<line class="st3" x1="701.1" y1="63.6" x2="696.5" y2="63.6"/>
<line class="st3" x1="674.2" y1="63.5" x2="669.6" y2="63.5"/>
<line class="st3" x1="700.5" y1="167.1" x2="695.9" y2="167.1"/>
<line class="st3" x1="728.6" y1="167.1" x2="724" y2="167.1"/>
<line class="st3" x1="756.7" y1="167.1" x2="752.1" y2="167.1"/>
<line class="st3" x1="784.8" y1="167.1" x2="780.2" y2="167.1"/>
<line class="st3" x1="812.9" y1="167.1" x2="808.3" y2="167.1"/>
<line class="st3" x1="841" y1="167.1" x2="836.4" y2="167.1"/>
<line class="st3" x1="869" y1="167.1" x2="864.5" y2="167.1"/>
<line class="st3" x1="897.1" y1="167.1" x2="892.5" y2="167.1"/>
<line class="st3" x1="700.5" y1="279" x2="695.9" y2="279"/>
<line class="st3" x1="701.1" y1="383.1" x2="696.5" y2="383.1"/>
<line class="st3" x1="729.2" y1="383.2" x2="724.6" y2="383.2"/>
<line class="st3" x1="757.3" y1="383.1" x2="752.7" y2="383.1"/>
<line class="st3" x1="785.4" y1="383.2" x2="780.8" y2="383.2"/>
<line class="st3" x1="813.4" y1="383.2" x2="808.9" y2="383.2"/>
<line class="st3" x1="841.5" y1="383.2" x2="836.9" y2="383.2"/>
<line class="st3" x1="869.6" y1="383.2" x2="865" y2="383.2"/>
<line class="st3" x1="897.7" y1="383.2" x2="893.1" y2="383.2"/>
<line class="st3" x1="897.7" y1="495" x2="893.1" y2="495"/>
<line class="st3" x1="869.6" y1="495" x2="865" y2="495"/>
<line class="st3" x1="841.5" y1="495" x2="836.9" y2="495"/>
<line class="st3" x1="813.4" y1="495" x2="808.9" y2="495"/>
<line class="st3" x1="785.4" y1="495" x2="780.8" y2="495"/>
<line class="st3" x1="757.3" y1="495" x2="752.7" y2="495"/>
<line class="st3" x1="729.2" y1="495.1" x2="724.6" y2="495.1"/>
<line class="st3" x1="701.1" y1="495.2" x2="696.5" y2="495.2"/>
<line class="st3" x1="897.7" y1="585.6" x2="893.2" y2="585.6"/>
<line class="st3" x1="869.7" y1="585.6" x2="865.1" y2="585.6"/>
<line class="st3" x1="841.6" y1="585.6" x2="837" y2="585.6"/>
<line class="st3" x1="813.5" y1="585.6" x2="808.9" y2="585.6"/>
<line class="st3" x1="785.4" y1="585.6" x2="780.8" y2="585.6"/>
<line class="st3" x1="757.3" y1="585.6" x2="752.7" y2="585.6"/>
<line class="st3" x1="729.2" y1="585.7" x2="724.6" y2="585.7"/>
<line class="st3" x1="701.1" y1="585.8" x2="696.5" y2="585.8"/>
<line class="st3" x1="673" y1="585.8" x2="668.4" y2="585.8"/>
<line class="st3" x1="728.6" y1="279" x2="724" y2="279"/>
<line class="st3" x1="756.7" y1="279" x2="752.1" y2="279"/>
<line class="st3" x1="784.8" y1="279" x2="780.2" y2="279"/>
<line class="st3" x1="812.9" y1="279" x2="808.3" y2="279"/>
<line class="st3" x1="841" y1="279" x2="836.4" y2="279"/>
<line class="st3" x1="869" y1="279" x2="864.5" y2="279"/>
<line class="st3" x1="897.1" y1="279" x2="892.5" y2="279"/>
<line class="st3" x1="729.2" y1="63.5" x2="724.6" y2="63.5"/>
<line class="st3" x1="757.3" y1="63.5" x2="752.7" y2="63.5"/>
<line class="st3" x1="785.4" y1="63.5" x2="780.8" y2="63.5"/>
<line class="st3" x1="813.4" y1="63.5" x2="808.9" y2="63.5"/>
<line class="st3" x1="841.5" y1="63.5" x2="836.9" y2="63.5"/>
<line class="st3" x1="869.6" y1="63.5" x2="865" y2="63.5"/>
<line class="st3" x1="897.7" y1="63.5" x2="893.1" y2="63.5"/>
<line class="st3" x1="163.5" y1="231.6" x2="157.1" y2="231.6"/>
<line class="st3" x1="208.3" y1="231.6" x2="202" y2="231.6"/>
<line class="st3" x1="253.3" y1="231.6" x2="247" y2="231.6"/>
<line class="st3" x1="298.3" y1="231.6" x2="292" y2="231.6"/>
<line class="st3" x1="343.3" y1="231.6" x2="337" y2="231.6"/>
<line class="st3" x1="388.3" y1="231.6" x2="382" y2="231.6"/>
<line class="st3" x1="433.3" y1="231.6" x2="427" y2="231.6"/>
<line class="st3" x1="478.3" y1="231.6" x2="472" y2="231.6"/>
<line class="st3" x1="523.3" y1="231.6" x2="517" y2="231.6"/>
<line class="st3" x1="568" y1="231.6" x2="561.7" y2="231.6"/>
<line class="st3" x1="613" y1="231.6" x2="606.7" y2="231.6"/>
<line class="st3" x1="163.3" y1="411.6" x2="157" y2="411.6"/>
<line class="st3" x1="163.7" y1="552.1" x2="157.4" y2="552.1"/>
<line class="st3" x1="208.7" y1="551.6" x2="202.4" y2="551.6"/>
<line class="st3" x1="253.7" y1="551.6" x2="247.4" y2="551.6"/>
<line class="st3" x1="298.7" y1="551.6" x2="292.4" y2="551.6"/>
<line class="st3" x1="343.7" y1="551.6" x2="337.4" y2="551.6"/>
<line class="st3" x1="388.7" y1="551.6" x2="382.4" y2="551.6"/>
<line class="st3" x1="433.7" y1="551.6" x2="427.4" y2="551.6"/>
<line class="st3" x1="478.7" y1="551.6" x2="472.4" y2="551.6"/>
<line class="st3" x1="523.7" y1="551.6" x2="517.4" y2="551.6"/>
<line class="st3" x1="568.7" y1="551.6" x2="562.4" y2="551.6"/>
<line class="st3" x1="613.7" y1="551.6" x2="607.4" y2="551.6"/>
<line class="st3" x1="208.3" y1="411.6" x2="202" y2="411.6"/>
<line class="st3" x1="253.3" y1="411.6" x2="247" y2="411.6"/>
<line class="st3" x1="298.3" y1="411.6" x2="292" y2="411.6"/>
<line class="st3" x1="343.3" y1="411.6" x2="337" y2="411.6"/>
<line class="st3" x1="388.3" y1="411.6" x2="382" y2="411.6"/>
<line class="st3" x1="433.3" y1="411.6" x2="427" y2="411.6"/>
<line class="st3" x1="478.3" y1="411.6" x2="472" y2="411.6"/>
<line class="st3" x1="523.3" y1="411.6" x2="517" y2="411.6"/>
<line class="st3" x1="568" y1="411.6" x2="561.7" y2="411.6"/>
<line class="st3" x1="613" y1="411.6" x2="606.7" y2="411.6"/>
<line class="st3" x1="99.9" y1="140.4" x2="99.9" y2="146.7"/>
<line class="st3" x1="99.9" y1="185.4" x2="99.9" y2="191.7"/>
<line class="st3" x1="99.9" y1="230.4" x2="99.9" y2="236.7"/>
<line class="st3" x1="99.9" y1="275.4" x2="99.9" y2="281.7"/>
<line class="st3" x1="99.9" y1="320.4" x2="99.9" y2="326.7"/>
<line class="st3" x1="99.9" y1="365.4" x2="99.9" y2="371.7"/>
<line class="st3" x1="99.9" y1="410.4" x2="99.9" y2="416.7"/>
<line class="st3" x1="99.9" y1="455.4" x2="99.9" y2="461.7"/>
<line class="st3" x1="99.9" y1="500.4" x2="99.9" y2="506.7"/>
<line class="st3" x1="99.9" y1="545.4" x2="99.9" y2="551.7"/>
<line class="st3" x1="9.9" y1="98.5" x2="9.9" y2="548.7"/>
<g>
	<rect x="10.1" y="8.4" class="st11" width="124" height="77.6"/>
	<line class="st11" x1="10.1" y1="8.4" x2="134.1" y2="86.1"/>
	<line class="st11" x1="10.1" y1="86.1" x2="134.1" y2="8.4"/>
</g>
<g>
	<rect x="10.1" y="564.5" class="st11" width="124" height="77.6"/>
	<line class="st11" x1="10.1" y1="564.5" x2="134.1" y2="642.1"/>
	<line class="st11" x1="10.1" y1="642.1" x2="134.1" y2="564.5"/>
</g>
<g>
	<rect x="168.9" y="13.1" class="st9" width="9.6" height="2.9"/>
	<rect x="186.9" y="13.1" class="st9" width="9.6" height="2.9"/>
	<polygon class="st12" points="170.3,13.1 171.7,13.1 173.3,16.1 171.9,16.1 	"/>
	<polygon class="st12" points="173.9,13.1 175.3,13.1 176.9,16.1 175.5,16.1 	"/>
	<polygon class="st12" points="195.1,13.1 193.7,13.1 192.1,16.1 193.5,16.1 	"/>
	<polygon class="st12" points="191.5,13.1 190.1,13.1 188.5,16.1 189.9,16.1 	"/>
</g>
<g>
	<rect x="213.9" y="13.1" class="st9" width="9.6" height="2.9"/>
	<rect x="231.9" y="13.1" class="st9" width="9.6" height="2.9"/>
	<polygon class="st12" points="215.3,13.1 216.7,13.1 218.3,16.1 216.9,16.1 	"/>
	<polygon class="st12" points="218.9,13.1 220.3,13.1 221.9,16.1 220.5,16.1 	"/>
	<polygon class="st12" points="240.1,13.1 238.7,13.1 237.1,16.1 238.5,16.1 	"/>
	<polygon class="st12" points="236.5,13.1 235.1,13.1 233.5,16.1 235,16.1 	"/>
</g>
<g>
	<rect x="258.9" y="13.1" class="st9" width="9.6" height="2.9"/>
	<rect x="276.9" y="13.1" class="st9" width="9.6" height="2.9"/>
	<polygon class="st12" points="260.3,13.1 261.7,13.1 263.3,16.1 261.9,16.1 	"/>
	<polygon class="st12" points="263.9,13.1 265.3,13.1 266.9,16.1 265.5,16.1 	"/>
	<polygon class="st12" points="285.1,13.1 283.7,13.1 282.1,16.1 283.5,16.1 	"/>
	<polygon class="st12" points="281.5,13.1 280.1,13.1 278.5,16.1 280,16.1 	"/>
</g>
<g>
	<rect x="303.9" y="13.1" class="st9" width="9.6" height="2.9"/>
	<rect x="321.9" y="13.1" class="st9" width="9.6" height="2.9"/>
	<polygon class="st12" points="305.3,13.1 306.7,13.1 308.3,16.1 306.9,16.1 	"/>
	<polygon class="st12" points="308.9,13.1 310.3,13.1 311.9,16.1 310.5,16.1 	"/>
	<polygon class="st12" points="330.1,13.1 328.7,13.1 327.1,16.1 328.5,16.1 	"/>
	<polygon class="st12" points="326.5,13.1 325.1,13.1 323.5,16.1 325,16.1 	"/>
</g>
<g>
	<rect x="348.9" y="13.1" class="st9" width="9.6" height="2.9"/>
	<rect x="366.9" y="13.1" class="st9" width="9.6" height="2.9"/>
	<polygon class="st12" points="350.3,13.1 351.7,13.1 353.3,16.1 351.9,16.1 	"/>
	<polygon class="st12" points="353.9,13.1 355.3,13.1 356.9,16.1 355.5,16.1 	"/>
	<polygon class="st12" points="375.1,13.1 373.7,13.1 372.1,16.1 373.6,16.1 	"/>
	<polygon class="st12" points="371.5,13.1 370.1,13.1 368.5,16.1 370,16.1 	"/>
</g>
<g>
	<rect x="393.9" y="13.1" class="st9" width="9.6" height="2.9"/>
	<rect x="411.9" y="13.1" class="st9" width="9.6" height="2.9"/>
	<polygon class="st12" points="395.3,13.1 396.7,13.1 398.3,16.1 396.9,16.1 	"/>
	<polygon class="st12" points="398.9,13.1 400.3,13.1 401.9,16.1 400.5,16.1 	"/>
	<polygon class="st12" points="420.1,13.1 418.7,13.1 417.1,16.1 418.5,16.1 	"/>
	<polygon class="st12" points="416.5,13.1 415.1,13.1 413.5,16.1 415,16.1 	"/>
</g>
<g>
	<rect x="438.9" y="13.1" class="st9" width="9.6" height="2.9"/>
	<rect x="456.9" y="13.1" class="st9" width="9.6" height="2.9"/>
	<polygon class="st12" points="440.3,13.1 441.7,13.1 443.3,16.1 441.9,16.1 	"/>
	<polygon class="st12" points="443.9,13.1 445.3,13.1 446.9,16.1 445.5,16.1 	"/>
	<polygon class="st12" points="465.1,13.1 463.7,13.1 462.1,16.1 463.5,16.1 	"/>
	<polygon class="st12" points="461.5,13.1 460.1,13.1 458.5,16.1 460,16.1 	"/>
</g>
<g>
	<rect x="483.9" y="13.1" class="st9" width="9.6" height="2.9"/>
	<rect x="501.9" y="13.1" class="st9" width="9.6" height="2.9"/>
	<polygon class="st12" points="485.3,13.1 486.7,13.1 488.3,16.1 486.9,16.1 	"/>
	<polygon class="st12" points="488.9,13.1 490.3,13.1 491.9,16.1 490.5,16.1 	"/>
	<polygon class="st12" points="510.1,13.1 508.7,13.1 507.1,16.1 508.5,16.1 	"/>
	<polygon class="st12" points="506.5,13.1 505.1,13.1 503.5,16.1 505,16.1 	"/>
</g>
<g>
	<rect x="528.9" y="13.1" class="st9" width="9.6" height="2.9"/>
	<rect x="546.9" y="13.1" class="st9" width="9.6" height="2.9"/>
	<polygon class="st12" points="530.3,13.1 531.7,13.1 533.3,16.1 531.9,16.1 	"/>
	<polygon class="st12" points="533.9,13.1 535.3,13.1 536.9,16.1 535.5,16.1 	"/>
	<polygon class="st12" points="555.1,13.1 553.7,13.1 552.1,16.1 553.5,16.1 	"/>
	<polygon class="st12" points="551.5,13.1 550.1,13.1 548.5,16.1 550,16.1 	"/>
</g>
<g>
	<rect x="573.9" y="13.1" class="st9" width="9.6" height="2.9"/>
	<rect x="591.9" y="13.1" class="st9" width="9.6" height="2.9"/>
	<polygon class="st12" points="575.3,13.1 576.7,13.1 578.3,16.1 576.9,16.1 	"/>
	<polygon class="st12" points="578.9,13.1 580.3,13.1 581.9,16.1 580.5,16.1 	"/>
	<polygon class="st12" points="600.1,13.1 598.7,13.1 597.1,16.1 598.6,16.1 	"/>
	<polygon class="st12" points="596.5,13.1 595.1,13.1 593.5,16.1 595,16.1 	"/>
</g>
<g>
	<rect x="168.9" y="313.2" class="st9" width="9.6" height="2.9"/>
	<rect x="186.9" y="313.2" class="st9" width="9.6" height="2.9"/>
	<polygon class="st12" points="170.3,313.2 171.7,313.2 173.3,316.2 171.8,316.2 	"/>
	<polygon class="st12" points="173.9,313.2 175.3,313.2 176.9,316.2 175.4,316.2 	"/>
	<polygon class="st12" points="195.1,313.2 193.7,313.2 192.1,316.2 193.5,316.2 	"/>
	<polygon class="st12" points="191.5,313.2 190.1,313.2 188.5,316.2 189.9,316.2 	"/>
</g>
<g>
	<rect x="213.9" y="313.2" class="st9" width="9.6" height="2.9"/>
	<rect x="231.9" y="313.2" class="st9" width="9.6" height="2.9"/>
	<polygon class="st12" points="215.3,313.2 216.7,313.2 218.3,316.2 216.9,316.2 	"/>
	<polygon class="st12" points="218.9,313.2 220.3,313.2 221.9,316.2 220.4,316.2 	"/>
	<polygon class="st12" points="240.1,313.2 238.7,313.2 237.1,316.2 238.5,316.2 	"/>
	<polygon class="st12" points="236.5,313.2 235.1,313.2 233.5,316.2 234.9,316.2 	"/>
</g>
<g>
	<rect x="258.9" y="313.2" class="st9" width="9.6" height="2.9"/>
	<rect x="276.9" y="313.2" class="st9" width="9.6" height="2.9"/>
	<polygon class="st12" points="260.3,313.2 261.7,313.2 263.3,316.2 261.9,316.2 	"/>
	<polygon class="st12" points="263.9,313.2 265.3,313.2 266.9,316.2 265.4,316.2 	"/>
	<polygon class="st12" points="285.1,313.2 283.7,313.2 282.1,316.2 283.5,316.2 	"/>
	<polygon class="st12" points="281.5,313.2 280.1,313.2 278.5,316.2 279.9,316.2 	"/>
</g>
<g>
	<rect x="303.9" y="313.2" class="st9" width="9.6" height="2.9"/>
	<rect x="321.9" y="313.2" class="st9" width="9.6" height="2.9"/>
	<polygon class="st12" points="305.3,313.2 306.7,313.2 308.3,316.2 306.9,316.2 	"/>
	<polygon class="st12" points="308.9,313.2 310.3,313.2 311.9,316.2 310.4,316.2 	"/>
	<polygon class="st12" points="330.1,313.2 328.7,313.2 327.1,316.2 328.5,316.2 	"/>
	<polygon class="st12" points="326.5,313.2 325.1,313.2 323.5,316.2 324.9,316.2 	"/>
</g>
<g>
	<rect x="348.9" y="313.2" class="st9" width="9.6" height="2.9"/>
	<rect x="366.9" y="313.2" class="st9" width="9.6" height="2.9"/>
	<polygon class="st12" points="350.3,313.2 351.7,313.2 353.3,316.2 351.9,316.2 	"/>
	<polygon class="st12" points="353.9,313.2 355.3,313.2 356.9,316.2 355.5,316.2 	"/>
	<polygon class="st12" points="375.1,313.2 373.7,313.2 372.1,316.2 373.5,316.2 	"/>
	<polygon class="st12" points="371.5,313.2 370.1,313.2 368.5,316.2 370,316.2 	"/>
</g>
<g>
	<rect x="393.9" y="313.2" class="st9" width="9.6" height="2.9"/>
	<rect x="411.9" y="313.2" class="st9" width="9.6" height="2.9"/>
	<polygon class="st12" points="395.3,313.2 396.7,313.2 398.3,316.2 396.9,316.2 	"/>
	<polygon class="st12" points="398.9,313.2 400.3,313.2 401.9,316.2 400.4,316.2 	"/>
	<polygon class="st12" points="420.1,313.2 418.7,313.2 417.1,316.2 418.5,316.2 	"/>
	<polygon class="st12" points="416.5,313.2 415.1,313.2 413.5,316.2 414.9,316.2 	"/>
</g>
<g>
	<rect x="438.9" y="313.2" class="st9" width="9.6" height="2.9"/>
	<rect x="456.9" y="313.2" class="st9" width="9.6" height="2.9"/>
	<polygon class="st12" points="440.3,313.2 441.7,313.2 443.3,316.2 441.9,316.2 	"/>
	<polygon class="st12" points="443.9,313.2 445.3,313.2 446.9,316.2 445.4,316.2 	"/>
	<polygon class="st12" points="465.1,313.2 463.7,313.2 462.1,316.2 463.5,316.2 	"/>
	<polygon class="st12" points="461.5,313.2 460.1,313.2 458.5,316.2 459.9,316.2 	"/>
</g>
<g>
	<rect x="483.9" y="313.2" class="st9" width="9.6" height="2.9"/>
	<rect x="501.9" y="313.2" class="st9" width="9.6" height="2.9"/>
	<polygon class="st12" points="485.3,313.2 486.7,313.2 488.3,316.2 486.9,316.2 	"/>
	<polygon class="st12" points="488.9,313.2 490.3,313.2 491.9,316.2 490.4,316.2 	"/>
	<polygon class="st12" points="510.1,313.2 508.7,313.2 507.1,316.2 508.5,316.2 	"/>
	<polygon class="st12" points="506.5,313.2 505.1,313.2 503.5,316.2 504.9,316.2 	"/>
</g>
<g>
	<rect x="528.9" y="313.2" class="st9" width="9.6" height="2.9"/>
	<rect x="546.9" y="313.2" class="st9" width="9.6" height="2.9"/>
	<polygon class="st12" points="530.3,313.2 531.7,313.2 533.3,316.2 531.9,316.2 	"/>
	<polygon class="st12" points="533.9,313.2 535.3,313.2 536.9,316.2 535.4,316.2 	"/>
	<polygon class="st12" points="555.1,313.2 553.7,313.2 552.1,316.2 553.5,316.2 	"/>
	<polygon class="st12" points="551.5,313.2 550.1,313.2 548.5,316.2 549.9,316.2 	"/>
</g>
<g>
	<rect x="573.9" y="313.2" class="st9" width="9.6" height="2.9"/>
	<rect x="591.9" y="313.2" class="st9" width="9.6" height="2.9"/>
	<polygon class="st12" points="575.3,313.2 576.7,313.2 578.3,316.2 576.9,316.2 	"/>
	<polygon class="st12" points="578.9,313.2 580.3,313.2 581.9,316.2 580.5,316.2 	"/>
	<polygon class="st12" points="600.1,313.2 598.7,313.2 597.1,316.2 598.6,316.2 	"/>
	<polygon class="st12" points="596.5,313.2 595.1,313.2 593.5,316.2 595,316.2 	"/>
</g>
<g>
	<rect x="168.9" y="327.2" class="st9" width="9.6" height="2.9"/>
	<rect x="186.9" y="327.2" class="st9" width="9.6" height="2.9"/>
	<polygon class="st12" points="170.3,327.2 171.7,327.2 173.3,330.1 171.8,330.1 	"/>
	<polygon class="st12" points="173.9,327.2 175.3,327.2 176.9,330.1 175.4,330.1 	"/>
	<polygon class="st12" points="195.1,327.2 193.7,327.2 192.1,330.1 193.5,330.1 	"/>
	<polygon class="st12" points="191.5,327.2 190.1,327.2 188.5,330.1 189.9,330.1 	"/>
</g>
<g>
	<rect x="213.9" y="327.2" class="st9" width="9.6" height="2.9"/>
	<rect x="231.9" y="327.2" class="st9" width="9.6" height="2.9"/>
	<polygon class="st12" points="215.3,327.2 216.7,327.2 218.3,330.1 216.9,330.1 	"/>
	<polygon class="st12" points="218.9,327.2 220.3,327.2 221.9,330.1 220.4,330.1 	"/>
	<polygon class="st12" points="240.1,327.2 238.7,327.2 237.1,330.1 238.5,330.1 	"/>
	<polygon class="st12" points="236.5,327.2 235.1,327.2 233.5,330.1 234.9,330.1 	"/>
</g>
<g>
	<rect x="258.9" y="327.2" class="st9" width="9.6" height="2.9"/>
	<rect x="276.9" y="327.2" class="st9" width="9.6" height="2.9"/>
	<polygon class="st12" points="260.3,327.2 261.7,327.2 263.3,330.1 261.9,330.1 	"/>
	<polygon class="st12" points="263.9,327.2 265.3,327.2 266.9,330.1 265.4,330.1 	"/>
	<polygon class="st12" points="285.1,327.2 283.7,327.2 282.1,330.1 283.5,330.1 	"/>
	<polygon class="st12" points="281.5,327.2 280.1,327.2 278.5,330.1 279.9,330.1 	"/>
</g>
<g>
	<rect x="303.9" y="327.2" class="st9" width="9.6" height="2.9"/>
	<rect x="321.9" y="327.2" class="st9" width="9.6" height="2.9"/>
	<polygon class="st12" points="305.3,327.2 306.7,327.2 308.3,330.1 306.9,330.1 	"/>
	<polygon class="st12" points="308.9,327.2 310.3,327.2 311.9,330.1 310.4,330.1 	"/>
	<polygon class="st12" points="330.1,327.2 328.7,327.2 327.1,330.1 328.5,330.1 	"/>
	<polygon class="st12" points="326.5,327.2 325.1,327.2 323.5,330.1 324.9,330.1 	"/>
</g>
<g>
	<rect x="348.9" y="327.2" class="st9" width="9.6" height="2.9"/>
	<rect x="366.9" y="327.2" class="st9" width="9.6" height="2.9"/>
	<polygon class="st12" points="350.3,327.2 351.7,327.2 353.3,330.1 351.9,330.1 	"/>
	<polygon class="st12" points="353.9,327.2 355.3,327.2 356.9,330.1 355.5,330.1 	"/>
	<polygon class="st12" points="375.1,327.2 373.7,327.2 372.1,330.1 373.5,330.1 	"/>
	<polygon class="st12" points="371.5,327.2 370.1,327.2 368.5,330.1 370,330.1 	"/>
</g>
<g>
	<rect x="393.9" y="327.2" class="st9" width="9.6" height="2.9"/>
	<rect x="411.9" y="327.2" class="st9" width="9.6" height="2.9"/>
	<polygon class="st12" points="395.3,327.2 396.7,327.2 398.3,330.1 396.9,330.1 	"/>
	<polygon class="st12" points="398.9,327.2 400.3,327.2 401.9,330.1 400.4,330.1 	"/>
	<polygon class="st12" points="420.1,327.2 418.7,327.2 417.1,330.1 418.5,330.1 	"/>
	<polygon class="st12" points="416.5,327.2 415.1,327.2 413.5,330.1 414.9,330.1 	"/>
</g>
<g>
	<rect x="438.9" y="327.2" class="st9" width="9.6" height="2.9"/>
	<rect x="456.9" y="327.2" class="st9" width="9.6" height="2.9"/>
	<polygon class="st12" points="440.3,327.2 441.7,327.2 443.3,330.1 441.9,330.1 	"/>
	<polygon class="st12" points="443.9,327.2 445.3,327.2 446.9,330.1 445.4,330.1 	"/>
	<polygon class="st12" points="465.1,327.2 463.7,327.2 462.1,330.1 463.5,330.1 	"/>
	<polygon class="st12" points="461.5,327.2 460.1,327.2 458.5,330.1 459.9,330.1 	"/>
</g>
<g>
	<rect x="483.9" y="327.2" class="st9" width="9.6" height="2.9"/>
	<rect x="501.9" y="327.2" class="st9" width="9.6" height="2.9"/>
	<polygon class="st12" points="485.3,327.2 486.7,327.2 488.3,330.1 486.9,330.1 	"/>
	<polygon class="st12" points="488.9,327.2 490.3,327.2 491.9,330.1 490.4,330.1 	"/>
	<polygon class="st12" points="510.1,327.2 508.7,327.2 507.1,330.1 508.5,330.1 	"/>
	<polygon class="st12" points="506.5,327.2 505.1,327.2 503.5,330.1 504.9,330.1 	"/>
</g>
<g>
	<rect x="528.9" y="327.2" class="st9" width="9.6" height="2.9"/>
	<rect x="546.9" y="327.2" class="st9" width="9.6" height="2.9"/>
	<polygon class="st12" points="530.3,327.2 531.7,327.2 533.3,330.1 531.9,330.1 	"/>
	<polygon class="st12" points="533.9,327.2 535.3,327.2 536.9,330.1 535.4,330.1 	"/>
	<polygon class="st12" points="555.1,327.2 553.7,327.2 552.1,330.1 553.5,330.1 	"/>
	<polygon class="st12" points="551.5,327.2 550.1,327.2 548.5,330.1 549.9,330.1 	"/>
</g>
<g>
	<rect x="15.4" y="107.3" class="st9" width="2.9" height="9.6"/>
	<rect x="15.4" y="125.3" class="st9" width="2.9" height="9.6"/>
	<polygon class="st12" points="18.3,108.7 18.3,110.1 15.4,111.7 15.4,110.2 	"/>
	<polygon class="st12" points="18.3,112.3 18.3,113.7 15.4,115.3 15.4,113.8 	"/>
	<polygon class="st12" points="18.3,133.5 18.3,132.1 15.4,130.5 15.4,131.9 	"/>
	<polygon class="st12" points="18.3,129.9 18.3,128.5 15.4,126.9 15.4,128.3 	"/>
</g>
<g>
	<rect x="15.4" y="152.3" class="st9" width="2.9" height="9.6"/>
	<rect x="15.4" y="170.3" class="st9" width="2.9" height="9.6"/>
	<polygon class="st12" points="18.3,153.7 18.3,155.1 15.4,156.7 15.4,155.2 	"/>
	<polygon class="st12" points="18.3,157.3 18.3,158.7 15.4,160.3 15.4,158.8 	"/>
	<polygon class="st12" points="18.3,178.5 18.3,177.1 15.4,175.5 15.4,176.9 	"/>
	<polygon class="st12" points="18.3,174.9 18.3,173.5 15.4,171.9 15.4,173.3 	"/>
</g>
<g>
	<rect x="15.4" y="197.3" class="st9" width="2.9" height="9.6"/>
	<rect x="15.4" y="215.3" class="st9" width="2.9" height="9.6"/>
	<polygon class="st12" points="18.3,198.7 18.3,200.1 15.4,201.7 15.4,200.2 	"/>
	<polygon class="st12" points="18.3,202.3 18.3,203.7 15.4,205.3 15.4,203.8 	"/>
	<polygon class="st12" points="18.3,223.5 18.3,222.1 15.4,220.5 15.4,221.9 	"/>
	<polygon class="st12" points="18.3,219.9 18.3,218.5 15.4,216.9 15.4,218.3 	"/>
</g>
<g>
	<rect x="15.4" y="242.3" class="st9" width="2.9" height="9.6"/>
	<rect x="15.4" y="260.3" class="st9" width="2.9" height="9.6"/>
	<polygon class="st12" points="18.3,243.7 18.3,245.1 15.4,246.7 15.4,245.2 	"/>
	<polygon class="st12" points="18.3,247.3 18.3,248.7 15.4,250.3 15.4,248.8 	"/>
	<polygon class="st12" points="18.3,268.5 18.3,267.1 15.4,265.5 15.4,266.9 	"/>
	<polygon class="st12" points="18.3,264.9 18.3,263.5 15.4,261.9 15.4,263.3 	"/>
</g>
<g>
	<rect x="15.4" y="287.3" class="st9" width="2.9" height="9.6"/>
	<rect x="15.4" y="305.3" class="st9" width="2.9" height="9.6"/>
	<polygon class="st12" points="18.3,288.7 18.3,290.1 15.4,291.7 15.4,290.3 	"/>
	<polygon class="st12" points="18.3,292.3 18.3,293.7 15.4,295.3 15.4,293.8 	"/>
	<polygon class="st12" points="18.3,313.5 18.3,312.1 15.4,310.5 15.4,311.9 	"/>
	<polygon class="st12" points="18.3,309.9 18.3,308.5 15.4,306.9 15.4,308.3 	"/>
</g>
<g>
	<rect x="15.4" y="332.3" class="st9" width="2.9" height="9.6"/>
	<rect x="15.4" y="350.3" class="st9" width="2.9" height="9.6"/>
	<polygon class="st12" points="18.3,333.7 18.3,335.1 15.4,336.7 15.4,335.2 	"/>
	<polygon class="st12" points="18.3,337.3 18.3,338.7 15.4,340.3 15.4,338.8 	"/>
	<polygon class="st12" points="18.3,358.5 18.3,357.1 15.4,355.5 15.4,356.9 	"/>
	<polygon class="st12" points="18.3,354.9 18.3,353.5 15.4,351.9 15.4,353.3 	"/>
</g>
<g>
	<rect x="15.4" y="377.3" class="st9" width="2.9" height="9.6"/>
	<rect x="15.4" y="395.3" class="st9" width="2.9" height="9.6"/>
	<polygon class="st12" points="18.3,378.7 18.3,380.1 15.4,381.7 15.4,380.2 	"/>
	<polygon class="st12" points="18.3,382.3 18.3,383.7 15.4,385.3 15.4,383.8 	"/>
	<polygon class="st12" points="18.3,403.5 18.3,402.1 15.4,400.5 15.4,401.9 	"/>
	<polygon class="st12" points="18.3,399.9 18.3,398.5 15.4,396.9 15.4,398.3 	"/>
</g>
<g>
	<rect x="15.4" y="422.3" class="st9" width="2.9" height="9.6"/>
	<rect x="15.4" y="440.3" class="st9" width="2.9" height="9.6"/>
	<polygon class="st12" points="18.3,423.7 18.3,425.1 15.4,426.7 15.4,425.2 	"/>
	<polygon class="st12" points="18.3,427.3 18.3,428.7 15.4,430.3 15.4,428.8 	"/>
	<polygon class="st12" points="18.3,448.5 18.3,447.1 15.4,445.5 15.4,446.9 	"/>
	<polygon class="st12" points="18.3,444.9 18.3,443.5 15.4,441.9 15.4,443.3 	"/>
</g>
<g>
	<rect x="15.4" y="467.3" class="st9" width="2.9" height="9.6"/>
	<rect x="15.4" y="485.3" class="st9" width="2.9" height="9.6"/>
	<polygon class="st12" points="18.3,468.7 18.3,470.1 15.4,471.7 15.4,470.2 	"/>
	<polygon class="st12" points="18.3,472.3 18.3,473.7 15.4,475.3 15.4,473.8 	"/>
	<polygon class="st12" points="18.3,493.5 18.3,492.1 15.4,490.5 15.4,491.9 	"/>
	<polygon class="st12" points="18.3,489.9 18.3,488.5 15.4,486.9 15.4,488.3 	"/>
</g>
<g>
	<rect x="15.3" y="512.3" class="st9" width="2.9" height="9.6"/>
	<rect x="15.4" y="530.4" class="st9" width="2.9" height="9.6"/>
	<polygon class="st12" points="18.3,513.8 18.3,515.2 15.3,516.8 15.3,515.3 	"/>
	<polygon class="st12" points="18.3,517.4 18.3,518.8 15.3,520.4 15.3,518.9 	"/>
	<polygon class="st12" points="18.3,538.6 18.3,537.2 15.3,535.6 15.3,537 	"/>
	<polygon class="st12" points="18.3,535 18.3,533.6 15.3,532 15.3,533.4 	"/>
</g>
<g>
	<rect x="573.9" y="327.2" class="st9" width="9.6" height="2.9"/>
	<rect x="591.9" y="327.2" class="st9" width="9.6" height="2.9"/>
	<polygon class="st12" points="575.3,327.2 576.7,327.2 578.3,330.1 576.9,330.1 	"/>
	<polygon class="st12" points="578.9,327.2 580.3,327.2 581.9,330.1 580.5,330.1 	"/>
	<polygon class="st12" points="600.1,327.2 598.7,327.2 597.1,330.1 598.6,330.1 	"/>
	<polygon class="st12" points="596.5,327.2 595.1,327.2 593.5,330.1 595,330.1 	"/>
</g>
<g>
	<rect x="169" y="633.2" class="st9" width="9.6" height="2.9"/>
	<rect x="187" y="633.2" class="st9" width="9.6" height="2.9"/>
	<polygon class="st12" points="170.4,633.2 171.8,633.2 173.4,636.2 172,636.2 	"/>
	<polygon class="st12" points="174,633.2 175.4,633.2 177,636.2 175.6,636.2 	"/>
	<polygon class="st12" points="195.2,633.2 193.8,633.2 192.2,636.2 193.7,636.2 	"/>
	<polygon class="st12" points="191.6,633.2 190.2,633.2 188.6,636.2 190.1,636.2 	"/>
</g>
<g>
	<rect x="214" y="633.2" class="st9" width="9.6" height="2.9"/>
	<rect x="232" y="633.2" class="st9" width="9.6" height="2.9"/>
	<polygon class="st12" points="215.4,633.2 216.8,633.2 218.4,636.2 217,636.2 	"/>
	<polygon class="st12" points="219,633.2 220.4,633.2 222,636.2 220.6,636.2 	"/>
	<polygon class="st12" points="240.2,633.2 238.8,633.2 237.2,636.2 238.7,636.2 	"/>
	<polygon class="st12" points="236.6,633.2 235.2,633.2 233.6,636.2 235.1,636.2 	"/>
</g>
<g>
	<rect x="259" y="633.2" class="st9" width="9.6" height="2.9"/>
	<rect x="277" y="633.2" class="st9" width="9.6" height="2.9"/>
	<polygon class="st12" points="260.4,633.2 261.8,633.2 263.4,636.2 262,636.2 	"/>
	<polygon class="st12" points="264,633.2 265.4,633.2 267,636.2 265.6,636.2 	"/>
	<polygon class="st12" points="285.2,633.2 283.8,633.2 282.2,636.2 283.7,636.2 	"/>
	<polygon class="st12" points="281.6,633.2 280.2,633.2 278.6,636.2 280.1,636.2 	"/>
</g>
<g>
	<rect x="304" y="633.2" class="st9" width="9.6" height="2.9"/>
	<rect x="322" y="633.2" class="st9" width="9.6" height="2.9"/>
	<polygon class="st12" points="305.4,633.2 306.8,633.2 308.4,636.2 307,636.2 	"/>
	<polygon class="st12" points="309,633.2 310.4,633.2 312,636.2 310.6,636.2 	"/>
	<polygon class="st12" points="330.2,633.2 328.8,633.2 327.2,636.2 328.7,636.2 	"/>
	<polygon class="st12" points="326.6,633.2 325.2,633.2 323.6,636.2 325.1,636.2 	"/>
</g>
<g>
	<rect x="349" y="633.2" class="st9" width="9.6" height="2.9"/>
	<rect x="367" y="633.2" class="st9" width="9.6" height="2.9"/>
	<polygon class="st12" points="350.4,633.2 351.8,633.2 353.5,636.2 352,636.2 	"/>
	<polygon class="st12" points="354,633.2 355.4,633.2 357,636.2 355.6,636.2 	"/>
	<polygon class="st12" points="375.2,633.2 373.8,633.2 372.2,636.2 373.7,636.2 	"/>
	<polygon class="st12" points="371.7,633.2 370.2,633.2 368.6,636.2 370.1,636.2 	"/>
</g>
<g>
	<rect x="394" y="633.2" class="st9" width="9.6" height="2.9"/>
	<rect x="412" y="633.2" class="st9" width="9.6" height="2.9"/>
	<polygon class="st12" points="395.4,633.2 396.8,633.2 398.4,636.2 397,636.2 	"/>
	<polygon class="st12" points="399,633.2 400.4,633.2 402,636.2 400.6,636.2 	"/>
	<polygon class="st12" points="420.2,633.2 418.8,633.2 417.2,636.2 418.7,636.2 	"/>
	<polygon class="st12" points="416.6,633.2 415.2,633.2 413.6,636.2 415.1,636.2 	"/>
</g>
<g>
	<rect x="439" y="633.2" class="st9" width="9.6" height="2.9"/>
	<rect x="457" y="633.2" class="st9" width="9.6" height="2.9"/>
	<polygon class="st12" points="440.4,633.2 441.8,633.2 443.4,636.2 442,636.2 	"/>
	<polygon class="st12" points="444,633.2 445.4,633.2 447,636.2 445.6,636.2 	"/>
	<polygon class="st12" points="465.2,633.2 463.8,633.2 462.2,636.2 463.7,636.2 	"/>
	<polygon class="st12" points="461.6,633.2 460.2,633.2 458.6,636.2 460.1,636.2 	"/>
</g>
<g>
	<rect x="484" y="633.2" class="st9" width="9.6" height="2.9"/>
	<rect x="502" y="633.2" class="st9" width="9.6" height="2.9"/>
	<polygon class="st12" points="485.4,633.2 486.8,633.2 488.4,636.2 487,636.2 	"/>
	<polygon class="st12" points="489,633.2 490.4,633.2 492,636.2 490.6,636.2 	"/>
	<polygon class="st12" points="510.2,633.2 508.8,633.2 507.2,636.2 508.7,636.2 	"/>
	<polygon class="st12" points="506.6,633.2 505.2,633.2 503.6,636.2 505.1,636.2 	"/>
</g>
<g>
	<rect x="529" y="633.2" class="st9" width="9.6" height="2.9"/>
	<rect x="547" y="633.2" class="st9" width="9.6" height="2.9"/>
	<polygon class="st12" points="530.4,633.2 531.8,633.2 533.4,636.2 532,636.2 	"/>
	<polygon class="st12" points="534,633.2 535.4,633.2 537,636.2 535.6,636.2 	"/>
	<polygon class="st12" points="555.2,633.2 553.8,633.2 552.2,636.2 553.7,636.2 	"/>
	<polygon class="st12" points="551.6,633.2 550.2,633.2 548.6,636.2 550.1,636.2 	"/>
</g>
<g>
	<rect x="574" y="633.2" class="st9" width="9.6" height="2.9"/>
	<rect x="592" y="633.2" class="st9" width="9.6" height="2.9"/>
	<polygon class="st12" points="575.4,633.2 576.8,633.2 578.5,636.2 577,636.2 	"/>
	<polygon class="st12" points="579,633.2 580.4,633.2 582.1,636.2 580.6,636.2 	"/>
	<polygon class="st12" points="600.3,633.2 598.8,633.2 597.2,636.2 598.7,636.2 	"/>
	<polygon class="st12" points="596.7,633.2 595.2,633.2 593.6,636.2 595.1,636.2 	"/>
</g>
<rect x="-124.9" y="-24.4" class="st13" width="13.5" height="4.9"/>
<g>
	<circle class="st9" cx="182.7" cy="78.3" r="9.2"/>
	<circle class="st9" cx="227.7" cy="78.3" r="9.2"/>
	<circle class="st9" cx="272.7" cy="78.3" r="9.2"/>
	<circle class="st9" cx="317.7" cy="78.3" r="9.2"/>
	<circle class="st9" cx="362.7" cy="78.3" r="9.2"/>
	<circle class="st9" cx="407.7" cy="78.3" r="9.2"/>
	<circle class="st9" cx="452.7" cy="78.3" r="9.2"/>
	<circle class="st9" cx="497.7" cy="78.3" r="9.2"/>
	<circle class="st9" cx="542.7" cy="78.3" r="9.2"/>
	<circle class="st9" cx="587.7" cy="78.3" r="9.2"/>
</g>
<g>
	<circle class="st9" cx="182.7" cy="251.2" r="9.2"/>
	<circle class="st9" cx="227.7" cy="251.2" r="9.2"/>
	<circle class="st9" cx="272.7" cy="251.2" r="9.2"/>
	<circle class="st9" cx="317.7" cy="251.2" r="9.2"/>
	<circle class="st9" cx="362.7" cy="251.2" r="9.2"/>
	<circle class="st9" cx="407.7" cy="251.2" r="9.2"/>
	<circle class="st9" cx="452.7" cy="251.2" r="9.2"/>
	<circle class="st9" cx="497.7" cy="251.2" r="9.2"/>
	<circle class="st9" cx="542.7" cy="251.2" r="9.2"/>
	<circle class="st9" cx="587.7" cy="251.2" r="9.2"/>
</g>
<g>
	<circle class="st9" cx="182.7" cy="392.4" r="9.2"/>
	<circle class="st9" cx="227.7" cy="392.4" r="9.2"/>
	<circle class="st9" cx="272.7" cy="392.4" r="9.2"/>
	<circle class="st9" cx="317.7" cy="392.4" r="9.2"/>
	<circle class="st9" cx="362.7" cy="392.4" r="9.2"/>
	<circle class="st9" cx="407.7" cy="392.4" r="9.2"/>
	<circle class="st9" cx="452.7" cy="392.4" r="9.2"/>
	<circle class="st9" cx="497.7" cy="392.4" r="9.2"/>
	<circle class="st9" cx="542.7" cy="392.4" r="9.2"/>
	<circle class="st9" cx="587.7" cy="392.4" r="9.2"/>
</g>
<g>
	<circle class="st9" cx="182.7" cy="568.8" r="9.2"/>
	<circle class="st9" cx="227.7" cy="568.8" r="9.2"/>
	<circle class="st9" cx="272.7" cy="568.8" r="9.2"/>
	<circle class="st9" cx="317.7" cy="568.8" r="9.2"/>
	<circle class="st9" cx="362.7" cy="568.8" r="9.2"/>
	<circle class="st9" cx="407.7" cy="568.8" r="9.2"/>
	<circle class="st9" cx="452.7" cy="568.8" r="9.2"/>
	<circle class="st9" cx="497.7" cy="568.8" r="9.2"/>
	<circle class="st9" cx="542.7" cy="568.8" r="9.2"/>
	<circle class="st9" cx="587.7" cy="568.8" r="9.2"/>
</g>
<circle class="st9" cx="81.9" cy="119.7" r="9.2"/>
<circle class="st9" cx="81.9" cy="164.7" r="9.2"/>
<circle class="st9" cx="81.9" cy="209.7" r="9.2"/>
<circle class="st9" cx="81.9" cy="254.8" r="9.2"/>
<circle class="st9" cx="81.9" cy="299.7" r="9.2"/>
<circle class="st9" cx="81.9" cy="344.7" r="9.2"/>
<circle class="st9" cx="81.9" cy="389.7" r="9.2"/>
<circle class="st9" cx="81.9" cy="434.7" r="9.2"/>
<circle class="st9" cx="81.9" cy="479.7" r="9.2"/>
<circle class="st9" cx="81.9" cy="524.7" r="9.2"/>
<g>
	<path class="st14" d="M587.8,571.4l1.2-0.9v1.3l-1.2,0.9h-1.2v-8.5h1.2V571.4z"/>
</g>
<g>
	<path class="st14" d="M544.8,565.3l-3.2,4.2c-0.1,0.2-0.2,0.3-0.3,0.5c0,0.1,0,0.3,0,0.4c0,0.3,0.1,0.6,0.3,0.8s0.5,0.4,0.9,0.4
		c0.3,0,0.6-0.1,0.8-0.3s0.4-0.5,0.4-0.9h1.2c0,0.7-0.3,1.3-0.7,1.8s-1,0.7-1.6,0.7c-0.7,0-1.3-0.2-1.7-0.7c-0.5-0.5-0.7-1-0.7-1.7
		c0-0.6,0.2-1.1,0.5-1.5l2.7-3.4h-3.2v-1.2h4.7v0.9H544.8z"/>
</g>
<g>
	<path class="st14" d="M498.3,569.1h-0.4c-0.4,0-0.7,0.1-0.9,0.3c-0.2,0.2-0.3,0.5-0.3,0.9s0.1,0.7,0.3,0.9c0.2,0.2,0.5,0.3,0.9,0.3
		c0.3,0,0.5-0.1,0.7-0.3s0.4-0.4,0.4-0.8h1.2c-0.1,0.6-0.3,1.2-0.7,1.6c-0.4,0.4-0.9,0.6-1.5,0.7c-0.8,0-1.4-0.3-1.8-0.7
		c-0.4-0.5-0.6-1-0.6-1.7c0-0.3,0.1-0.6,0.2-0.9c0.1-0.3,0.4-0.6,0.7-0.8c-0.4-0.2-0.6-0.5-0.8-0.8c-0.2-0.3-0.2-0.7-0.2-1
		c0-0.8,0.2-1.4,0.7-1.9s1.1-0.7,1.8-0.7c0.6,0,1.1,0.2,1.5,0.6c0.4,0.4,0.7,0.9,0.8,1.6H499c-0.1-0.3-0.3-0.5-0.4-0.7
		c-0.2-0.2-0.5-0.3-0.8-0.3s-0.6,0.1-0.9,0.4c-0.2,0.2-0.4,0.6-0.4,1s0.1,0.8,0.4,1c0.2,0.2,0.5,0.3,0.9,0.3h0.5L498.3,569.1
		L498.3,569.1z"/>
</g>
<g>
	<path class="st14" d="M455.3,566.5l-2.8,6.1h-1.3l2.8-6.1h-2.2v2.5h-1.2v-2.5H450v-1.1h0.7v-1.3h1.2v1.3h3.4L455.3,566.5
		L455.3,566.5z"/>
</g>
<g>
	<path class="st14" d="M409.9,572.7h-4.4v-1.2h3.3v-1.9c-0.4,0.3-0.8,0.5-1.3,0.5c-0.3,0-0.6-0.1-0.9-0.2c-0.3-0.1-0.5-0.3-0.6-0.4
		c-0.2-0.2-0.4-0.5-0.5-0.8c-0.1-0.2-0.1-0.4-0.1-0.6c0-0.2,0-0.5,0-0.9c0-0.6,0-1,0.1-1.3s0.2-0.6,0.4-0.8c0.2-0.2,0.4-0.4,0.7-0.6
		c0.3-0.2,0.7-0.3,1.1-0.3c0.6,0,1.1,0.2,1.5,0.5c0.5,0.4,0.8,0.9,0.9,1.7h-1.2c-0.1-0.7-0.5-1-1.2-1c-0.3,0-0.5,0.1-0.7,0.2
		c-0.2,0.1-0.3,0.3-0.3,0.4c-0.1,0.2-0.1,0.4-0.1,0.6c0,0.2,0,0.4,0,0.6c0,0.5,0.1,0.9,0.2,1.2c0.1,0.1,0.2,0.3,0.4,0.3
		c0.2,0.1,0.4,0.1,0.6,0.1s0.4-0.1,0.6-0.2c0.2-0.1,0.3-0.3,0.5-0.6h1.1v4.7H409.9z"/>
</g>
<g>
	<path class="st14" d="M364.6,570.3c0,0.8-0.3,1.4-0.7,1.8c-0.5,0.4-1,0.6-1.6,0.6s-1.1-0.2-1.5-0.5s-0.7-0.8-0.8-1.4h1.2
		c0.2,0.5,0.5,0.7,1.1,0.7c0.8,0,1.1-0.5,1.2-1.3v-0.8c-0.6,0.2-1.1,0.3-1.6,0.3s-1-0.2-1.4-0.6c-0.4-0.4-0.6-1-0.5-1.8v-0.8
		c0-0.8,0.3-1.4,0.7-1.8c0.5-0.4,1-0.6,1.6-0.6s1.2,0.2,1.6,0.6c0.5,0.4,0.7,1,0.7,1.8L364.6,570.3L364.6,570.3z M363.4,566.6
		c0-0.9-0.4-1.3-1.2-1.3c-0.8,0-1.1,0.4-1.2,1.3v0.7c0,0.9,0.4,1.3,1.2,1.3c0.8,0,1.1-0.5,1.2-1.3V566.6z"/>
</g>
<g>
	<path class="st14" d="M319.8,572.7h-4.7v-1.2l2.8-7.3h1.3l-2.8,7.3h2.2v-1.2h1.2V572.7z"/>
</g>
<g>
	<path class="st14" d="M275.3,566.6c0,0.8-0.3,1.5-1,1.9c0.3,0.2,0.5,0.5,0.6,0.8c0.2,0.3,0.3,0.6,0.3,1c0,0.7-0.2,1.3-0.7,1.8
		c-0.4,0.5-1,0.7-1.7,0.7s-1.3-0.2-1.7-0.7c-0.4-0.5-0.7-1.1-0.7-1.8c0-0.4,0.1-0.7,0.2-1c0.2-0.3,0.4-0.5,0.6-0.8
		c-0.7-0.5-1-1.1-1-1.9c0-0.8,0.3-1.4,0.7-1.8c0.5-0.5,1.1-0.7,1.8-0.7c0.7,0,1.3,0.2,1.8,0.7C275,565.2,275.3,565.9,275.3,566.6z
		 M274.1,566.6c0-0.4-0.1-0.7-0.4-1s-0.6-0.4-0.9-0.4c-0.4,0-0.7,0.1-1,0.4c-0.3,0.3-0.4,0.6-0.4,1s0.1,0.7,0.4,1
		c0.3,0.2,0.6,0.4,1,0.4s0.7-0.1,0.9-0.4C274,567.4,274.1,567,274.1,566.6z M274,570.3c0-0.4-0.1-0.7-0.4-0.9
		c-0.2-0.2-0.5-0.3-0.8-0.3s-0.6,0.1-0.8,0.3c-0.2,0.2-0.4,0.5-0.4,0.9s0.1,0.7,0.4,0.9c0.2,0.2,0.5,0.3,0.8,0.3s0.6-0.1,0.8-0.3
		S274,570.7,274,570.3z"/>
</g>
<g>
	<path class="st14" d="M230.1,570.1c0,0.8-0.3,1.4-0.7,1.8c-0.5,0.4-1,0.6-1.6,0.6s-1.2-0.2-1.6-0.6c-0.5-0.4-0.7-1-0.7-1.8v-3.8
		c0-0.8,0.3-1.4,0.7-1.8c0.5-0.4,1-0.6,1.6-0.6c0.5,0,1,0.2,1.5,0.5c0.4,0.3,0.7,0.8,0.8,1.4h-1.2c-0.2-0.5-0.5-0.7-1.1-0.7
		c-0.8,0-1.1,0.4-1.2,1.3v0.8c0.6-0.2,1.1-0.3,1.6-0.3s1,0.2,1.4,0.6c0.4,0.4,0.6,1,0.6,1.8v0.8H230.1z M228.9,569.3
		c0-0.9-0.4-1.3-1.2-1.3s-1.1,0.4-1.2,1.3v0.7c0,0.9,0.4,1.3,1.2,1.3s1.1-0.5,1.2-1.3V569.3z"/>
</g>
<g>
	<path class="st14" d="M185.1,571.4l1.2-0.9v1.3l-1.2,0.9h-1.2v-8.5h1.2V571.4z"/>
	<path class="st14" d="M182.4,570.3c0,0.8-0.3,1.4-0.7,1.8c-0.5,0.4-1,0.6-1.6,0.6s-1.2-0.2-1.6-0.6c-0.5-0.4-0.7-1-0.7-1.8v-3.8
		c0-0.8,0.3-1.4,0.7-1.8c0.5-0.4,1-0.6,1.6-0.6s1.2,0.2,1.6,0.6c0.5,0.4,0.7,1,0.7,1.8V570.3z M178.9,570.2c0,0.9,0.4,1.3,1.2,1.3
		s1.1-0.5,1.2-1.3v-3.6c0-0.9-0.4-1.3-1.2-1.3s-1.1,0.4-1.2,1.3V570.2z"/>
</g>
<g>
	<path class="st14" d="M79,527.3l0.9,1.2h-1.3l-0.9-1.2v-1.2h8.5v1.2H79z"/>
	<path class="st14" d="M79,522.7l0.9,1.2h-1.3l-0.9-1.2v-1.2h8.5v1.2H79z"/>
</g>
<g>
	<path class="st14" d="M79,482.3l0.9,1.2h-1.3l-0.9-1.2v-1.2h8.5v1.2H79z"/>
	<path class="st14" d="M85.1,479.6l-4.2-3.2c-0.2-0.1-0.3-0.2-0.5-0.3c-0.1,0-0.3,0-0.4,0c-0.3,0-0.6,0.1-0.8,0.3
		c-0.2,0.2-0.4,0.5-0.4,0.9c0,0.3,0.1,0.6,0.3,0.8c0.2,0.2,0.5,0.4,0.9,0.4v1.2c-0.7,0-1.3-0.3-1.8-0.7c-0.5-0.4-0.7-1-0.7-1.6
		c0-0.7,0.2-1.3,0.7-1.7c0.5-0.5,1-0.7,1.7-0.7c0.6,0,1.1,0.2,1.5,0.5l3.4,2.7V475H86v4.7L85.1,479.6L85.1,479.6z"/>
</g>
<g>
	<path class="st14" d="M79,437.1l0.9,1.2h-1.3l-0.9-1.2V436h8.5v1.2H79V437.1z"/>
	<path class="st14" d="M81.3,432.8v-0.4c0-0.4-0.1-0.7-0.3-0.9c-0.2-0.2-0.5-0.3-0.9-0.3s-0.7,0.1-0.9,0.3c-0.2,0.2-0.3,0.5-0.3,0.9
		c0,0.3,0.1,0.5,0.3,0.7c0.2,0.2,0.4,0.4,0.8,0.4v1.2c-0.6-0.1-1.2-0.3-1.6-0.7c-0.4-0.4-0.6-0.9-0.7-1.5c0-0.8,0.3-1.4,0.7-1.8
		c0.5-0.4,1-0.6,1.7-0.6c0.3,0,0.6,0.1,0.9,0.2s0.6,0.4,0.8,0.7c0.2-0.4,0.5-0.6,0.8-0.8c0.3-0.2,0.7-0.2,1-0.2
		c0.8,0,1.4,0.2,1.9,0.7s0.7,1.1,0.7,1.8c0,0.6-0.2,1.1-0.6,1.5s-0.9,0.7-1.6,0.8v-1.2c0.3-0.1,0.5-0.3,0.7-0.4
		c0.2-0.2,0.3-0.5,0.3-0.8s-0.1-0.6-0.4-0.9c-0.2-0.2-0.6-0.4-1-0.4s-0.8,0.1-1,0.4c-0.2,0.2-0.3,0.5-0.3,0.9v0.5h-1V432.8z"/>
</g>
<g>
	<path class="st14" d="M79,392.4l0.9,1.2h-1.3l-0.9-1.2v-1.2h8.5v1.2H79z"/>
	<path class="st14" d="M83.9,390l-6.1-2.8v-1.3l6.1,2.8v-2.2h-2.5v-1.2h2.5v-0.7H85v0.7h1.3v1.2H85v3.5H83.9z"/>
</g>
<g>
	<path class="st14" d="M79,347.6l0.9,1.2h-1.3l-0.9-1.2v-1.2h8.5v1.2H79z"/>
	<path class="st14" d="M77.7,344.7v-4.4h1.2v3.3h1.9c-0.3-0.4-0.5-0.8-0.5-1.3c0-0.3,0.1-0.6,0.2-0.9c0.1-0.2,0.3-0.5,0.4-0.6
		c0.2-0.2,0.5-0.4,0.8-0.5c0.2-0.1,0.4-0.1,0.6-0.1s0.5,0,0.9,0c0.6,0,1,0,1.3,0.1s0.6,0.2,0.8,0.4c0.2,0.2,0.4,0.4,0.6,0.7
		c0.2,0.3,0.3,0.7,0.3,1.1c0,0.6-0.2,1.1-0.5,1.5c-0.4,0.5-0.9,0.8-1.7,0.9v-1.2c0.7-0.1,1-0.5,1-1.2c0-0.3-0.1-0.5-0.2-0.7
		s-0.3-0.3-0.4-0.3c-0.2-0.1-0.4-0.1-0.6-0.1s-0.4,0-0.6,0c-0.5,0-0.9,0.1-1.2,0.2c-0.1,0.1-0.3,0.2-0.3,0.4
		c-0.1,0.2-0.1,0.4-0.1,0.6s0.1,0.4,0.2,0.6s0.3,0.3,0.6,0.5v1.1h-4.7V344.7z"/>
</g>
<g>
	<path class="st14" d="M79,303l0.9,1.2h-1.3l-0.9-1.2v-1.2h8.5v1.2H79z"/>
	<path class="st14" d="M80.1,300.2c-0.8,0-1.4-0.3-1.8-0.7c-0.4-0.5-0.6-1-0.6-1.6s0.2-1.1,0.5-1.5s0.8-0.7,1.4-0.8v1.2
		c-0.5,0.2-0.7,0.5-0.7,1.1c0,0.8,0.5,1.1,1.3,1.2H81c-0.2-0.6-0.3-1.1-0.3-1.6s0.2-1,0.6-1.4s1-0.6,1.8-0.5h0.8
		c0.8,0,1.4,0.3,1.8,0.7c0.4,0.5,0.6,1,0.6,1.6s-0.2,1.2-0.6,1.6c-0.4,0.5-1,0.7-1.8,0.7L80.1,300.2L80.1,300.2z M83.8,299
		c0.9,0,1.3-0.4,1.3-1.2c0-0.8-0.4-1.1-1.3-1.2h-0.7c-0.9,0-1.3,0.4-1.3,1.2c0,0.8,0.5,1.1,1.3,1.2H83.8z"/>
</g>
<g>
	<path class="st14" d="M79,257.5l0.9,1.2h-1.3l-0.9-1.2v-1.2h8.5v1.2H79z"/>
	<path class="st14" d="M77.7,254.6v-4.7h1.2l7.3,2.8v1.3l-7.3-2.8v2.2h1.2v1.2H77.7z"/>
</g>
<g>
	<path class="st14" d="M79,212.4l0.9,1.2h-1.3l-0.9-1.2v-1.2h8.5v1.2H79z"/>
	<path class="st14" d="M83.8,209.8c-0.8,0-1.5-0.3-1.9-1c-0.2,0.3-0.5,0.5-0.8,0.6c-0.3,0.2-0.6,0.3-1,0.3c-0.7,0-1.3-0.2-1.8-0.7
		c-0.5-0.4-0.7-1-0.7-1.7s0.2-1.3,0.7-1.7s1.1-0.7,1.8-0.7c0.4,0,0.7,0.1,1,0.2c0.3,0.2,0.5,0.4,0.8,0.6c0.5-0.7,1.1-1,1.9-1
		s1.4,0.3,1.8,0.7c0.5,0.5,0.7,1.1,0.7,1.8s-0.2,1.3-0.7,1.8C85.2,209.5,84.5,209.8,83.8,209.8z M80.1,208.5c0.4,0,0.7-0.1,0.9-0.4
		c0.2-0.2,0.3-0.5,0.3-0.8s-0.1-0.6-0.3-0.8c-0.2-0.2-0.5-0.4-0.9-0.4s-0.7,0.1-0.9,0.4c-0.2,0.2-0.3,0.5-0.3,0.8s0.1,0.6,0.3,0.8
		S79.7,208.5,80.1,208.5z M83.8,208.6c0.4,0,0.7-0.1,1-0.4c0.3-0.3,0.4-0.6,0.4-0.9c0-0.4-0.1-0.7-0.4-1s-0.6-0.4-1-0.4
		s-0.7,0.1-1,0.4c-0.2,0.3-0.4,0.6-0.4,1s0.1,0.7,0.4,0.9C83,208.5,83.4,208.6,83.8,208.6z"/>
</g>
<g>
	<path class="st14" d="M79,167.3l0.9,1.2h-1.3l-0.9-1.2v-1.2h8.5v1.2H79z"/>
	<path class="st14" d="M80.1,164.6c-0.8,0-1.4-0.3-1.8-0.7c-0.4-0.5-0.6-1-0.6-1.6s0.2-1.2,0.6-1.6c0.4-0.5,1-0.7,1.8-0.7h3.8
		c0.8,0,1.4,0.3,1.8,0.7c0.4,0.5,0.6,1,0.6,1.6c0,0.5-0.2,1-0.5,1.5c-0.3,0.4-0.8,0.7-1.4,0.8v-1.2c0.5-0.2,0.7-0.5,0.7-1.1
		c0-0.8-0.4-1.1-1.3-1.2H83c0.2,0.6,0.3,1.1,0.3,1.6s-0.2,1-0.6,1.4s-1,0.6-1.8,0.6h-0.8V164.6z M80.9,163.4c0.9,0,1.3-0.4,1.3-1.2
		s-0.4-1.1-1.3-1.2h-0.7c-0.9,0-1.3,0.4-1.3,1.2s0.5,1.1,1.3,1.2H80.9z"/>
</g>
<g>
	<path class="st14" d="M85.1,124.9l-4.2-3.2c-0.2-0.1-0.3-0.2-0.5-0.3c-0.1,0-0.3,0-0.4,0c-0.3,0-0.6,0.1-0.8,0.3
		c-0.2,0.2-0.4,0.5-0.4,0.9c0,0.3,0.1,0.6,0.3,0.8c0.2,0.2,0.5,0.4,0.9,0.4v1.2c-0.7,0-1.3-0.3-1.8-0.7c-0.5-0.4-0.7-1-0.7-1.6
		c0-0.7,0.2-1.3,0.7-1.7c0.5-0.5,1-0.7,1.7-0.7c0.6,0,1.1,0.2,1.5,0.5l3.4,2.7v-3.2H86v4.7h-0.9V124.9z"/>
	<path class="st14" d="M80.1,119.1c-0.8,0-1.4-0.3-1.8-0.7c-0.4-0.5-0.6-1-0.6-1.6s0.2-1.2,0.6-1.6c0.4-0.5,1-0.7,1.8-0.7h3.8
		c0.8,0,1.4,0.3,1.8,0.7c0.4,0.5,0.6,1,0.6,1.6s-0.2,1.2-0.6,1.6c-0.4,0.5-1,0.7-1.8,0.7H80.1z M80.2,115.6c-0.9,0-1.3,0.4-1.3,1.2
		c0,0.8,0.5,1.1,1.3,1.2h3.6c0.9,0,1.3-0.4,1.3-1.2c0-0.8-0.4-1.1-1.3-1.2H80.2z"/>
</g>
<g>
	<path class="st14" d="M177.5,81.8l3.2-4.2c0.1-0.2,0.2-0.3,0.3-0.5c0-0.1,0-0.3,0-0.4c0-0.3-0.1-0.6-0.3-0.8
		c-0.2-0.2-0.5-0.4-0.9-0.4c-0.3,0-0.6,0.1-0.8,0.3c-0.2,0.2-0.4,0.5-0.4,0.9h-1.2c0-0.7,0.3-1.3,0.7-1.8s1-0.7,1.6-0.7
		c0.7,0,1.3,0.2,1.7,0.7c0.5,0.5,0.7,1,0.7,1.7c0,0.6-0.2,1.1-0.5,1.5l-2.7,3.4h3.2v1.2h-4.7L177.5,81.8L177.5,81.8z"/>
	<path class="st14" d="M184.7,75.7l-1.2,0.9v-1.3l1.2-0.9h1.2v8.5h-1.2V75.7z"/>
</g>
<g>
	<path class="st14" d="M222.5,81.8l3.2-4.2c0.1-0.2,0.2-0.3,0.3-0.5c0-0.1,0-0.3,0-0.4c0-0.3-0.1-0.6-0.3-0.8
		c-0.2-0.2-0.5-0.4-0.9-0.4c-0.3,0-0.6,0.1-0.8,0.3c-0.2,0.2-0.4,0.5-0.4,0.9h-1.2c0-0.7,0.3-1.3,0.7-1.8s1-0.7,1.6-0.7
		c0.7,0,1.3,0.2,1.7,0.7c0.5,0.5,0.7,1,0.7,1.7c0,0.6-0.2,1.1-0.5,1.5l-2.7,3.4h3.2v1.2h-4.7L222.5,81.8L222.5,81.8z"/>
	<path class="st14" d="M228.3,81.8l3.2-4.2c0.1-0.2,0.2-0.3,0.3-0.5c0-0.1,0-0.3,0-0.4c0-0.3-0.1-0.6-0.3-0.8
		c-0.2-0.2-0.5-0.4-0.9-0.4c-0.3,0-0.6,0.1-0.8,0.3c-0.2,0.2-0.4,0.5-0.4,0.9h-1.2c0-0.7,0.3-1.3,0.7-1.8s1-0.7,1.6-0.7
		c0.7,0,1.3,0.2,1.7,0.7c0.5,0.5,0.7,1,0.7,1.7c0,0.6-0.2,1.1-0.5,1.5l-2.7,3.4h3.2v1.2h-4.7L228.3,81.8L228.3,81.8z"/>
</g>
<g>
	<path class="st14" d="M267.5,81.8l3.2-4.2c0.1-0.2,0.2-0.3,0.3-0.5c0-0.1,0-0.3,0-0.4c0-0.3-0.1-0.6-0.3-0.8
		c-0.2-0.2-0.5-0.4-0.9-0.4c-0.3,0-0.6,0.1-0.8,0.3c-0.2,0.2-0.4,0.5-0.4,0.9h-1.2c0-0.7,0.3-1.3,0.7-1.8c0.4-0.5,1-0.7,1.6-0.7
		c0.7,0,1.3,0.2,1.7,0.7c0.5,0.5,0.7,1,0.7,1.7c0,0.6-0.2,1.1-0.5,1.5l-2.7,3.4h3.2v1.2h-4.7L267.5,81.8L267.5,81.8z"/>
	<path class="st14" d="M274.9,78h0.4c0.4,0,0.7-0.1,0.9-0.3c0.2-0.2,0.3-0.5,0.3-0.9s-0.1-0.7-0.3-0.9c-0.2-0.2-0.5-0.3-0.9-0.3
		c-0.3,0-0.5,0.1-0.7,0.3c-0.2,0.2-0.4,0.4-0.4,0.8H273c0.1-0.6,0.3-1.2,0.7-1.6c0.4-0.4,0.9-0.6,1.5-0.7c0.8,0,1.4,0.3,1.8,0.7
		c0.4,0.5,0.6,1,0.6,1.7c0,0.3-0.1,0.6-0.2,0.9s-0.4,0.6-0.7,0.8c0.4,0.2,0.6,0.5,0.8,0.8c0.2,0.3,0.2,0.7,0.2,1
		c0,0.8-0.2,1.4-0.7,1.9s-1.1,0.7-1.8,0.7c-0.6,0-1.1-0.2-1.5-0.6s-0.7-0.9-0.8-1.6h1.2c0.1,0.3,0.3,0.5,0.4,0.7
		c0.2,0.2,0.5,0.3,0.8,0.3s0.6-0.1,0.9-0.4c0.2-0.2,0.4-0.6,0.4-1s-0.1-0.8-0.4-1c-0.2-0.2-0.5-0.3-0.9-0.3h-0.5v-1H274.9z"/>
</g>
<g>
	<path class="st14" d="M312.3,81.8l3.2-4.2c0.1-0.2,0.2-0.3,0.3-0.5c0-0.1,0-0.3,0-0.4c0-0.3-0.1-0.6-0.3-0.8
		c-0.2-0.2-0.5-0.4-0.9-0.4c-0.3,0-0.6,0.1-0.8,0.3c-0.2,0.2-0.4,0.5-0.4,0.9h-1.2c0-0.7,0.3-1.3,0.7-1.8c0.4-0.5,1-0.7,1.6-0.7
		c0.7,0,1.3,0.2,1.7,0.7c0.5,0.5,0.7,1,0.7,1.7c0,0.6-0.2,1.1-0.5,1.5l-2.7,3.4h3.2v1.2h-4.7L312.3,81.8L312.3,81.8z"/>
	<path class="st14" d="M317.9,80.5l2.8-6.1h1.3l-2.8,6.1h2.2V78h1.2v2.5h0.7v1.1h-0.7v1.3h-1.2v-1.3H318v-1.1H317.9z"/>
</g>
<g>
	<path class="st14" d="M357.7,81.8l3.2-4.2c0.1-0.2,0.2-0.3,0.3-0.5c0-0.1,0-0.3,0-0.4c0-0.3-0.1-0.6-0.3-0.8
		c-0.2-0.2-0.5-0.4-0.9-0.4c-0.3,0-0.6,0.1-0.8,0.3c-0.2,0.2-0.4,0.5-0.4,0.9h-1.2c0-0.7,0.3-1.3,0.7-1.8c0.4-0.5,1-0.7,1.6-0.7
		c0.7,0,1.3,0.2,1.7,0.7c0.5,0.5,0.7,1,0.7,1.7c0,0.6-0.2,1.1-0.5,1.5l-2.7,3.4h3.2v1.2h-4.7L357.7,81.8L357.7,81.8z"/>
	<path class="st14" d="M363.7,74.4h4.4v1.2h-3.3v1.9c0.4-0.3,0.8-0.5,1.3-0.5c0.3,0,0.6,0.1,0.9,0.2s0.5,0.3,0.6,0.4
		c0.2,0.2,0.4,0.5,0.5,0.8c0.1,0.2,0.1,0.4,0.1,0.6s0,0.5,0,0.9c0,0.6,0,1-0.1,1.3s-0.2,0.6-0.4,0.8c-0.2,0.2-0.4,0.4-0.7,0.6
		c-0.3,0.2-0.7,0.3-1.1,0.3c-0.6,0-1.1-0.2-1.5-0.5c-0.5-0.4-0.8-0.9-0.9-1.7h1.2c0.1,0.7,0.5,1,1.2,1c0.3,0,0.5-0.1,0.7-0.2
		s0.3-0.3,0.3-0.4c0.1-0.2,0.1-0.4,0.1-0.6s0-0.4,0-0.6c0-0.5-0.1-0.9-0.2-1.2c-0.1-0.1-0.2-0.3-0.4-0.3c-0.2-0.1-0.4-0.1-0.6-0.1
		s-0.4,0.1-0.6,0.2s-0.3,0.3-0.5,0.6h-1.1v-4.7H363.7z"/>
</g>
<g>
	<path class="st14" d="M402.3,81.8l3.2-4.2c0.1-0.2,0.2-0.3,0.3-0.5c0-0.1,0-0.3,0-0.4c0-0.3-0.1-0.6-0.3-0.8
		c-0.2-0.2-0.5-0.4-0.9-0.4c-0.3,0-0.6,0.1-0.8,0.3c-0.2,0.2-0.4,0.5-0.4,0.9h-1.2c0-0.7,0.3-1.3,0.7-1.8c0.4-0.5,1-0.7,1.6-0.7
		c0.7,0,1.3,0.2,1.7,0.7c0.5,0.5,0.7,1,0.7,1.7c0,0.6-0.2,1.1-0.5,1.5l-2.7,3.4h3.2v1.2h-4.7L402.3,81.8L402.3,81.8z"/>
	<path class="st14" d="M408.1,76.7c0-0.8,0.3-1.4,0.7-1.8c0.5-0.4,1-0.6,1.6-0.6s1.1,0.2,1.5,0.5s0.7,0.8,0.8,1.4h-1.2
		c-0.2-0.5-0.5-0.7-1.1-0.7c-0.8,0-1.1,0.5-1.2,1.3v0.8c0.6-0.2,1.1-0.3,1.6-0.3s1,0.2,1.4,0.6s0.6,1,0.5,1.8v0.8
		c0,0.8-0.3,1.4-0.7,1.8c-0.5,0.4-1,0.6-1.6,0.6s-1.2-0.2-1.6-0.6c-0.5-0.4-0.7-1-0.7-1.8L408.1,76.7L408.1,76.7z M409.3,80.4
		c0,0.9,0.4,1.3,1.2,1.3c0.8,0,1.1-0.4,1.2-1.3v-0.7c0-0.9-0.4-1.3-1.2-1.3c-0.8,0-1.1,0.5-1.2,1.3V80.4z"/>
</g>
<g>
	<path class="st14" d="M447.6,81.8l3.2-4.2c0.1-0.2,0.2-0.3,0.3-0.5c0-0.1,0-0.3,0-0.4c0-0.3-0.1-0.6-0.3-0.8
		c-0.2-0.2-0.5-0.4-0.9-0.4c-0.3,0-0.6,0.1-0.8,0.3c-0.2,0.2-0.4,0.5-0.4,0.9h-1.2c0-0.7,0.3-1.3,0.7-1.8c0.4-0.5,1-0.7,1.6-0.7
		c0.7,0,1.3,0.2,1.7,0.7c0.5,0.5,0.7,1,0.7,1.7c0,0.6-0.2,1.1-0.5,1.5l-2.7,3.4h3.2v1.2h-4.7L447.6,81.8L447.6,81.8z"/>
	<path class="st14" d="M453.5,74.4h4.7v1.2l-2.8,7.3h-1.3l2.8-7.3h-2.2v1.2h-1.2V74.4z"/>
</g>
<g>
	<path class="st14" d="M492.6,81.8l3.2-4.2c0.1-0.2,0.2-0.3,0.3-0.5c0-0.1,0-0.3,0-0.4c0-0.3-0.1-0.6-0.3-0.8
		c-0.2-0.2-0.5-0.4-0.9-0.4c-0.3,0-0.6,0.1-0.8,0.3c-0.2,0.2-0.4,0.5-0.4,0.9h-1.2c0-0.7,0.3-1.3,0.7-1.8c0.4-0.5,1-0.7,1.6-0.7
		c0.7,0,1.3,0.2,1.7,0.7c0.5,0.5,0.7,1,0.7,1.7c0,0.6-0.2,1.1-0.5,1.5l-2.7,3.4h3.2v1.2h-4.7L492.6,81.8L492.6,81.8z"/>
	<path class="st14" d="M498.2,80.4c0-0.8,0.3-1.5,1-1.9c-0.3-0.2-0.5-0.5-0.6-0.8c-0.2-0.3-0.3-0.6-0.3-1c0-0.7,0.2-1.3,0.7-1.8
		c0.4-0.5,1-0.7,1.7-0.7s1.3,0.2,1.7,0.7c0.4,0.5,0.7,1.1,0.7,1.8c0,0.4-0.1,0.7-0.2,1c-0.2,0.3-0.4,0.5-0.6,0.8
		c0.7,0.5,1,1.1,1,1.9s-0.3,1.4-0.7,1.8c-0.5,0.5-1.1,0.7-1.8,0.7c-0.7,0-1.3-0.2-1.8-0.7C498.5,81.8,498.2,81.2,498.2,80.4z
		 M499.4,80.4c0,0.4,0.1,0.7,0.4,1s0.6,0.4,0.9,0.4c0.4,0,0.7-0.1,1-0.4s0.4-0.6,0.4-1s-0.1-0.7-0.4-1c-0.3-0.2-0.6-0.4-1-0.4
		s-0.7,0.1-0.9,0.4C499.5,79.7,499.4,80,499.4,80.4z M499.6,76.7c0,0.4,0.1,0.7,0.4,0.9c0.2,0.2,0.5,0.3,0.8,0.3s0.6-0.1,0.8-0.3
		c0.2-0.2,0.4-0.5,0.4-0.9s-0.1-0.7-0.4-0.9c-0.2-0.2-0.5-0.3-0.8-0.3s-0.6,0.1-0.8,0.3C499.7,76,499.6,76.3,499.6,76.7z"/>
</g>
<g>
	<path class="st14" d="M537.6,81.8l3.2-4.2c0.1-0.2,0.2-0.3,0.3-0.5c0-0.1,0-0.3,0-0.4c0-0.3-0.1-0.6-0.3-0.8
		c-0.2-0.2-0.5-0.4-0.9-0.4c-0.3,0-0.6,0.1-0.8,0.3c-0.2,0.2-0.4,0.5-0.4,0.9h-1.2c0-0.7,0.3-1.3,0.7-1.8s1-0.7,1.6-0.7
		c0.7,0,1.3,0.2,1.7,0.7c0.5,0.5,0.7,1,0.7,1.7c0,0.6-0.2,1.1-0.5,1.5l-2.7,3.4h3.2v1.2h-4.7v-0.9H537.6z"/>
	<path class="st14" d="M543.4,76.7c0-0.8,0.3-1.4,0.7-1.8c0.5-0.4,1-0.6,1.6-0.6s1.2,0.2,1.6,0.6c0.5,0.4,0.7,1,0.7,1.8v3.8
		c0,0.8-0.3,1.4-0.7,1.8c-0.5,0.4-1,0.6-1.6,0.6c-0.5,0-1-0.2-1.5-0.5c-0.4-0.3-0.7-0.8-0.8-1.4h1.2c0.2,0.5,0.5,0.7,1.1,0.7
		c0.8,0,1.1-0.4,1.2-1.3v-0.8c-0.6,0.2-1.1,0.3-1.6,0.3s-1-0.2-1.4-0.6s-0.6-1-0.6-1.8L543.4,76.7L543.4,76.7z M544.6,77.5
		c0,0.9,0.4,1.3,1.2,1.3s1.1-0.4,1.2-1.3v-0.7c0-0.9-0.4-1.3-1.2-1.3s-1.1,0.5-1.2,1.3V77.5z"/>
</g>
<g>
	<path class="st14" d="M584.1,78h0.4c0.4,0,0.7-0.1,0.9-0.3c0.2-0.2,0.3-0.5,0.3-0.9s-0.1-0.7-0.3-0.9c-0.2-0.2-0.5-0.3-0.9-0.3
		c-0.3,0-0.5,0.1-0.7,0.3c-0.2,0.2-0.4,0.4-0.4,0.8h-1.2c0.1-0.6,0.3-1.2,0.7-1.6s0.9-0.6,1.5-0.7c0.8,0,1.4,0.3,1.8,0.7
		c0.4,0.5,0.6,1,0.6,1.7c0,0.3-0.1,0.6-0.2,0.9c-0.1,0.3-0.4,0.6-0.7,0.8c0.4,0.2,0.6,0.5,0.8,0.8s0.2,0.7,0.2,1
		c0,0.8-0.2,1.4-0.7,1.9s-1.1,0.7-1.8,0.7c-0.6,0-1.1-0.2-1.5-0.6s-0.7-0.9-0.8-1.6h1.2c0.1,0.3,0.3,0.5,0.4,0.7
		c0.2,0.2,0.5,0.3,0.8,0.3s0.6-0.1,0.9-0.4c0.2-0.2,0.4-0.6,0.4-1s-0.1-0.8-0.4-1c-0.2-0.2-0.5-0.3-0.9-0.3H584v-1H584.1z"/>
	<path class="st14" d="M588.3,76.7c0-0.8,0.3-1.4,0.7-1.8c0.5-0.4,1-0.6,1.6-0.6s1.2,0.2,1.6,0.6c0.5,0.4,0.7,1,0.7,1.8v3.8
		c0,0.8-0.3,1.4-0.7,1.8c-0.5,0.4-1,0.6-1.6,0.6s-1.2-0.2-1.6-0.6c-0.5-0.4-0.7-1-0.7-1.8V76.7z M591.8,76.8c0-0.9-0.4-1.3-1.2-1.3
		s-1.1,0.5-1.2,1.3v3.6c0,0.9,0.4,1.3,1.2,1.3s1.1-0.4,1.2-1.3V76.8z"/>
</g>
<g>
	<path class="st14" d="M177.1,394.5l2.8-6.1h1.3l-2.8,6.1h2.2V392h1.2v2.5h0.7v1.1h-0.7v1.3h-1.2v-1.3h-3.4v-1.1H177.1z"/>
	<path class="st14" d="M184.6,389.6l-1.2,0.9v-1.3l1.2-0.9h1.2v8.5h-1.2V389.6z"/>
</g>
<g>
	<path class="st14" d="M222.2,394.5l2.8-6.1h1.3l-2.8,6.1h2.2V392h1.2v2.5h0.7v1.1h-0.7v1.3h-1.2v-1.3h-3.4v-1.1H222.2z"/>
	<path class="st14" d="M228.2,395.8l3.2-4.2c0.1-0.2,0.2-0.3,0.3-0.5c0-0.1,0-0.3,0-0.4c0-0.3-0.1-0.6-0.3-0.8
		c-0.2-0.2-0.5-0.4-0.9-0.4c-0.3,0-0.6,0.1-0.8,0.3c-0.2,0.2-0.4,0.5-0.4,0.9h-1.2c0-0.7,0.3-1.3,0.7-1.8s1-0.7,1.6-0.7
		c0.7,0,1.3,0.2,1.7,0.7c0.5,0.5,0.7,1,0.7,1.7c0,0.6-0.2,1.1-0.5,1.5l-2.7,3.4h3.2v1.2h-4.7L228.2,395.8L228.2,395.8z"/>
</g>
<g>
	<path class="st14" d="M267.1,394.5l2.8-6.1h1.3l-2.8,6.1h2.2V392h1.2v2.5h0.7v1.1h-0.7v1.3h-1.2v-1.3h-3.4v-1.1H267.1z"/>
	<path class="st14" d="M274.8,392h0.4c0.4,0,0.7-0.1,0.9-0.3c0.2-0.2,0.3-0.5,0.3-0.9s-0.1-0.7-0.3-0.9c-0.2-0.2-0.5-0.3-0.9-0.3
		c-0.3,0-0.5,0.1-0.7,0.3c-0.2,0.2-0.4,0.4-0.4,0.8h-1.2c0.1-0.6,0.3-1.2,0.7-1.6c0.4-0.4,0.9-0.6,1.5-0.7c0.8,0,1.4,0.3,1.8,0.7
		c0.4,0.5,0.6,1,0.6,1.7c0,0.3-0.1,0.6-0.2,0.9s-0.4,0.6-0.7,0.8c0.4,0.2,0.6,0.5,0.8,0.8c0.2,0.3,0.2,0.7,0.2,1
		c0,0.8-0.2,1.4-0.7,1.9s-1.1,0.7-1.8,0.7c-0.6,0-1.1-0.2-1.5-0.6s-0.7-0.9-0.8-1.6h1.2c0.1,0.3,0.3,0.5,0.4,0.7
		c0.2,0.2,0.5,0.3,0.8,0.3s0.6-0.1,0.9-0.4c0.2-0.2,0.4-0.6,0.4-1s-0.1-0.8-0.4-1c-0.2-0.2-0.5-0.3-0.9-0.3h-0.5v-1H274.8z"/>
</g>
<g>
	<path class="st14" d="M312,394.5l2.8-6.1h1.3l-2.8,6.1h2.2V392h1.2v2.5h0.7v1.1h-0.7v1.3h-1.2v-1.3h-3.4v-1.1H312z"/>
	<path class="st14" d="M317.7,394.5l2.8-6.1h1.3l-2.8,6.1h2.2V392h1.2v2.5h0.7v1.1h-0.7v1.3h-1.2v-1.3h-3.4v-1.1H317.7z"/>
</g>
<g>
	<path class="st14" d="M357.3,394.5l2.8-6.1h1.3l-2.8,6.1h2.2V392h1.2v2.5h0.7v1.1H362v1.3h-1.2v-1.3h-3.4v-1.1H357.3z"/>
	<path class="st14" d="M363.5,388.4h4.4v1.2h-3.3v1.9c0.4-0.3,0.8-0.5,1.3-0.5c0.3,0,0.6,0.1,0.9,0.2s0.5,0.3,0.6,0.4
		c0.2,0.2,0.4,0.5,0.5,0.8c0.1,0.2,0.1,0.4,0.1,0.6s0,0.5,0,0.9c0,0.6,0,1-0.1,1.3s-0.2,0.6-0.4,0.8c-0.2,0.2-0.4,0.4-0.7,0.6
		c-0.3,0.2-0.7,0.3-1.1,0.3c-0.6,0-1.1-0.2-1.5-0.5c-0.5-0.4-0.8-0.9-0.9-1.7h1.2c0.1,0.7,0.5,1,1.2,1c0.3,0,0.5-0.1,0.7-0.2
		s0.3-0.3,0.3-0.4c0.1-0.2,0.1-0.4,0.1-0.6s0-0.4,0-0.6c0-0.5-0.1-0.9-0.2-1.2c-0.1-0.1-0.2-0.3-0.4-0.3c-0.2-0.1-0.4-0.1-0.6-0.1
		s-0.4,0.1-0.6,0.2s-0.3,0.3-0.5,0.6h-1.1v-4.7H363.5z"/>
</g>
<g>
	<path class="st14" d="M401.9,394.5l2.8-6.1h1.3l-2.8,6.1h2.2V392h1.2v2.5h0.7v1.1h-0.7v1.3h-1.2v-1.3H402v-1.1H401.9z"/>
	<path class="st14" d="M408,390.7c0-0.8,0.3-1.4,0.7-1.8c0.5-0.4,1-0.6,1.6-0.6s1.1,0.2,1.5,0.5s0.7,0.8,0.8,1.4h-1.2
		c-0.2-0.5-0.5-0.7-1.1-0.7c-0.8,0-1.1,0.5-1.2,1.3v0.8c0.6-0.2,1.1-0.3,1.6-0.3s1,0.2,1.4,0.6s0.6,1,0.5,1.8v0.8
		c0,0.8-0.3,1.4-0.7,1.8c-0.5,0.4-1,0.6-1.6,0.6s-1.2-0.2-1.6-0.6c-0.5-0.4-0.7-1-0.7-1.8L408,390.7L408,390.7z M409.2,394.4
		c0,0.9,0.4,1.3,1.2,1.3c0.8,0,1.1-0.4,1.2-1.3v-0.7c0-0.9-0.4-1.3-1.2-1.3c-0.8,0-1.1,0.5-1.2,1.3V394.4z"/>
</g>
<g>
	<path class="st14" d="M447.2,394.5l2.8-6.1h1.3l-2.8,6.1h2.2V392h1.2v2.5h0.7v1.1h-0.7v1.3h-1.2v-1.3h-3.4v-1.1H447.2z"/>
	<path class="st14" d="M453.4,388.4h4.7v1.2l-2.8,7.3H454l2.8-7.3h-2.2v1.2h-1.2L453.4,388.4L453.4,388.4z"/>
</g>
<g>
	<path class="st14" d="M492.2,394.5l2.8-6.1h1.3l-2.8,6.1h2.2V392h1.2v2.5h0.7v1.1h-0.7v1.3h-1.2v-1.3h-3.4v-1.1H492.2z"/>
	<path class="st14" d="M498.1,394.4c0-0.8,0.3-1.5,1-1.9c-0.3-0.2-0.5-0.5-0.6-0.8c-0.2-0.3-0.3-0.6-0.3-1c0-0.7,0.2-1.3,0.7-1.8
		c0.4-0.5,1-0.7,1.7-0.7s1.3,0.2,1.7,0.7c0.4,0.5,0.7,1.1,0.7,1.8c0,0.4-0.1,0.7-0.2,1c-0.2,0.3-0.4,0.5-0.6,0.8
		c0.7,0.5,1,1.1,1,1.9s-0.3,1.4-0.7,1.8c-0.5,0.5-1.1,0.7-1.8,0.7c-0.7,0-1.3-0.2-1.8-0.7C498.4,395.8,498.1,395.2,498.1,394.4z
		 M499.3,394.4c0,0.4,0.1,0.7,0.4,1s0.6,0.4,0.9,0.4c0.4,0,0.7-0.1,1-0.4s0.4-0.6,0.4-1s-0.1-0.7-0.4-1c-0.3-0.2-0.6-0.4-1-0.4
		s-0.7,0.1-0.9,0.4C499.4,393.7,499.3,394,499.3,394.4z M499.4,390.7c0,0.4,0.1,0.7,0.4,0.9c0.2,0.2,0.5,0.3,0.8,0.3
		s0.6-0.1,0.8-0.3c0.2-0.2,0.4-0.5,0.4-0.9s-0.1-0.7-0.4-0.9c-0.2-0.2-0.5-0.3-0.8-0.3s-0.6,0.1-0.8,0.3S499.4,390.3,499.4,390.7z"
		/>
</g>
<g>
	<path class="st14" d="M537.2,394.5l2.8-6.1h1.3l-2.8,6.1h2.2V392h1.2v2.5h0.7v1.1h-0.7v1.3h-1.2v-1.3h-3.4L537.2,394.5L537.2,394.5
		z"/>
	<path class="st14" d="M543.3,390.7c0-0.8,0.3-1.4,0.7-1.8c0.5-0.4,1-0.6,1.6-0.6s1.2,0.2,1.6,0.6c0.5,0.4,0.7,1,0.7,1.8v3.8
		c0,0.8-0.3,1.4-0.7,1.8c-0.5,0.4-1,0.6-1.6,0.6c-0.5,0-1-0.2-1.5-0.5c-0.4-0.3-0.7-0.8-0.8-1.4h1.2c0.2,0.5,0.5,0.7,1.1,0.7
		c0.8,0,1.1-0.4,1.2-1.3v-0.8c-0.6,0.2-1.1,0.3-1.6,0.3s-1-0.2-1.4-0.6s-0.6-1-0.6-1.8L543.3,390.7L543.3,390.7z M544.5,391.5
		c0,0.9,0.4,1.3,1.2,1.3s1.1-0.4,1.2-1.3v-0.7c0-0.9-0.4-1.3-1.2-1.3s-1.1,0.5-1.2,1.3V391.5z"/>
</g>
<g>
	<path class="st14" d="M582.5,388.4h4.4v1.2h-3.3v1.9c0.4-0.3,0.8-0.5,1.3-0.5c0.3,0,0.6,0.1,0.9,0.2c0.3,0.1,0.5,0.3,0.6,0.4
		c0.2,0.2,0.4,0.5,0.5,0.8c0.1,0.2,0.1,0.4,0.1,0.6s0,0.5,0,0.9c0,0.6,0,1-0.1,1.3s-0.2,0.6-0.4,0.8c-0.2,0.2-0.4,0.4-0.7,0.6
		s-0.7,0.3-1.1,0.3c-0.6,0-1.1-0.2-1.5-0.5c-0.5-0.4-0.8-0.9-0.9-1.7h1.2c0.1,0.7,0.5,1,1.2,1c0.3,0,0.5-0.1,0.7-0.2
		s0.3-0.3,0.3-0.4c0.1-0.2,0.1-0.4,0.1-0.6s0-0.4,0-0.6c0-0.5-0.1-0.9-0.2-1.2c-0.1-0.1-0.2-0.3-0.4-0.3c-0.2-0.1-0.4-0.1-0.6-0.1
		c-0.2,0-0.4,0.1-0.6,0.2c-0.2,0.1-0.3,0.3-0.5,0.6h-1.1L582.5,388.4L582.5,388.4z"/>
	<path class="st14" d="M588.1,390.7c0-0.8,0.3-1.4,0.7-1.8c0.5-0.4,1-0.6,1.6-0.6s1.2,0.2,1.6,0.6c0.5,0.4,0.7,1,0.7,1.8v3.8
		c0,0.8-0.3,1.4-0.7,1.8c-0.5,0.4-1,0.6-1.6,0.6s-1.2-0.2-1.6-0.6c-0.5-0.4-0.7-1-0.7-1.8V390.7z M591.6,390.8
		c0-0.9-0.4-1.3-1.2-1.3s-1.1,0.5-1.2,1.3v3.6c0,0.9,0.4,1.3,1.2,1.3s1.1-0.4,1.2-1.3V390.8z"/>
</g>
<g>
	<path class="st14" d="M591.3,251.9h-0.4c-0.4,0-0.7,0.1-0.9,0.3s-0.3,0.5-0.3,0.9s0.1,0.7,0.3,0.9s0.5,0.3,0.9,0.3
		c0.3,0,0.5-0.1,0.7-0.3s0.4-0.4,0.4-0.8h1.2c-0.1,0.6-0.3,1.2-0.7,1.6c-0.4,0.4-0.9,0.6-1.5,0.7c-0.8,0-1.4-0.3-1.8-0.7
		c-0.4-0.5-0.6-1-0.6-1.7c0-0.3,0.1-0.6,0.2-0.9c0.1-0.3,0.4-0.6,0.7-0.8c-0.4-0.2-0.6-0.5-0.8-0.8s-0.2-0.7-0.2-1
		c0-0.8,0.2-1.4,0.7-1.9s1.1-0.7,1.8-0.7c0.6,0,1.1,0.2,1.5,0.6c0.4,0.4,0.7,0.9,0.8,1.6H592c-0.1-0.3-0.3-0.5-0.4-0.7
		c-0.2-0.2-0.5-0.3-0.8-0.3s-0.6,0.1-0.9,0.4c-0.2,0.2-0.4,0.6-0.4,1s0.1,0.8,0.4,1c0.2,0.2,0.5,0.3,0.9,0.3h0.5V251.9z"/>
	<path class="st14" d="M585.8,254.2l1.2-0.9v1.3l-1.2,0.9h-1.2V247h1.2V254.2z"/>
</g>
<g>
	<path class="st14" d="M546.3,251.9h-0.4c-0.4,0-0.7,0.1-0.9,0.3s-0.3,0.5-0.3,0.9s0.1,0.7,0.3,0.9s0.5,0.3,0.9,0.3
		c0.3,0,0.5-0.1,0.7-0.3s0.4-0.4,0.4-0.8h1.2c-0.1,0.6-0.3,1.2-0.7,1.6c-0.4,0.4-0.9,0.6-1.5,0.7c-0.8,0-1.4-0.3-1.8-0.7
		c-0.4-0.5-0.6-1-0.6-1.7c0-0.3,0.1-0.6,0.2-0.9c0.1-0.3,0.4-0.6,0.7-0.8c-0.4-0.2-0.6-0.5-0.8-0.8s-0.2-0.7-0.2-1
		c0-0.8,0.2-1.4,0.7-1.9s1.1-0.7,1.8-0.7c0.6,0,1.1,0.2,1.5,0.6c0.4,0.4,0.7,0.9,0.8,1.6H547c-0.1-0.3-0.3-0.5-0.4-0.7
		c-0.2-0.2-0.5-0.3-0.8-0.3s-0.6,0.1-0.9,0.4c-0.2,0.2-0.4,0.6-0.4,1s0.1,0.8,0.4,1c0.2,0.2,0.5,0.3,0.9,0.3h0.5V251.9z"/>
	<path class="st14" d="M542.2,248.1l-3.2,4.2c-0.1,0.2-0.2,0.3-0.3,0.5c0,0.1,0,0.3,0,0.4c0,0.3,0.1,0.6,0.3,0.8s0.5,0.4,0.9,0.4
		c0.3,0,0.6-0.1,0.8-0.3s0.4-0.5,0.4-0.9h1.2c0,0.7-0.3,1.3-0.7,1.8s-1,0.7-1.6,0.7c-0.7,0-1.3-0.2-1.7-0.7c-0.5-0.5-0.7-1-0.7-1.7
		c0-0.6,0.2-1.1,0.5-1.5l2.7-3.4h-3.2v-1.2h4.7v0.9H542.2z"/>
</g>
<g>
	<path class="st14" d="M501.3,251.9h-0.4c-0.4,0-0.7,0.1-0.9,0.3c-0.2,0.2-0.3,0.5-0.3,0.9s0.1,0.7,0.3,0.9c0.2,0.2,0.5,0.3,0.9,0.3
		c0.3,0,0.5-0.1,0.7-0.3s0.4-0.4,0.4-0.8h1.2c-0.1,0.6-0.3,1.2-0.7,1.6c-0.4,0.4-0.9,0.6-1.5,0.7c-0.8,0-1.4-0.3-1.8-0.7
		c-0.4-0.5-0.6-1-0.6-1.7c0-0.3,0.1-0.6,0.2-0.9c0.1-0.3,0.4-0.6,0.7-0.8c-0.4-0.2-0.6-0.5-0.8-0.8c-0.2-0.3-0.2-0.7-0.2-1
		c0-0.8,0.2-1.4,0.7-1.9s1.1-0.7,1.8-0.7c0.6,0,1.1,0.2,1.5,0.6c0.4,0.4,0.7,0.9,0.8,1.6H502c-0.1-0.3-0.3-0.5-0.4-0.7
		c-0.2-0.2-0.5-0.3-0.8-0.3s-0.6,0.1-0.9,0.4c-0.2,0.2-0.4,0.6-0.4,1s0.1,0.8,0.4,1c0.2,0.2,0.5,0.3,0.9,0.3h0.5L501.3,251.9
		L501.3,251.9z"/>
	<path class="st14" d="M495.6,251.9h-0.4c-0.4,0-0.7,0.1-0.9,0.3c-0.2,0.2-0.3,0.5-0.3,0.9s0.1,0.7,0.3,0.9c0.2,0.2,0.5,0.3,0.9,0.3
		c0.3,0,0.5-0.1,0.7-0.3s0.4-0.4,0.4-0.8h1.2c-0.1,0.6-0.3,1.2-0.7,1.6c-0.4,0.4-0.9,0.6-1.5,0.7c-0.8,0-1.4-0.3-1.8-0.7
		c-0.4-0.5-0.6-1-0.6-1.7c0-0.3,0.1-0.6,0.2-0.9c0.1-0.3,0.4-0.6,0.7-0.8c-0.4-0.2-0.6-0.5-0.8-0.8c-0.2-0.3-0.2-0.7-0.2-1
		c0-0.8,0.2-1.4,0.7-1.9s1.1-0.7,1.8-0.7c0.6,0,1.1,0.2,1.5,0.6c0.4,0.4,0.7,0.9,0.8,1.6h-1.2c-0.1-0.3-0.3-0.5-0.4-0.7
		c-0.2-0.2-0.5-0.3-0.8-0.3s-0.6,0.1-0.9,0.4c-0.2,0.2-0.4,0.6-0.4,1s0.1,0.8,0.4,1c0.2,0.2,0.5,0.3,0.9,0.3h0.5v1H495.6z"/>
</g>
<g>
	<path class="st14" d="M456.5,251.9h-0.4c-0.4,0-0.7,0.1-0.9,0.3c-0.2,0.2-0.3,0.5-0.3,0.9s0.1,0.7,0.3,0.9c0.2,0.2,0.5,0.3,0.9,0.3
		c0.3,0,0.5-0.1,0.7-0.3s0.4-0.4,0.4-0.8h1.2c-0.1,0.6-0.3,1.2-0.7,1.6c-0.4,0.4-0.9,0.6-1.5,0.7c-0.8,0-1.4-0.3-1.8-0.7
		c-0.4-0.5-0.6-1-0.6-1.7c0-0.3,0.1-0.6,0.2-0.9c0.1-0.3,0.4-0.6,0.7-0.8c-0.4-0.2-0.6-0.5-0.8-0.8c-0.2-0.3-0.2-0.7-0.2-1
		c0-0.8,0.2-1.4,0.7-1.9s1.1-0.7,1.8-0.7c0.6,0,1.1,0.2,1.5,0.6c0.4,0.4,0.7,0.9,0.8,1.6h-1.2c-0.1-0.3-0.3-0.5-0.4-0.7
		c-0.2-0.2-0.5-0.3-0.8-0.3s-0.6,0.1-0.9,0.4c-0.2,0.2-0.4,0.6-0.4,1s0.1,0.8,0.4,1c0.2,0.2,0.5,0.3,0.9,0.3h0.5v1H456.5z"/>
	<path class="st14" d="M452.6,249.4l-2.8,6.1h-1.3l2.8-6.1h-2.2v2.5H448v-2.5h-0.7v-1.1h0.7V247h1.2v1.3h3.4V249.4z"/>
</g>
<g>
	<path class="st14" d="M411.1,251.9h-0.4c-0.4,0-0.7,0.1-0.9,0.3c-0.2,0.2-0.3,0.5-0.3,0.9s0.1,0.7,0.3,0.9c0.2,0.2,0.5,0.3,0.9,0.3
		c0.3,0,0.5-0.1,0.7-0.3s0.4-0.4,0.4-0.8h1.2c-0.1,0.6-0.3,1.2-0.7,1.6c-0.4,0.4-0.9,0.6-1.5,0.7c-0.8,0-1.4-0.3-1.8-0.7
		c-0.4-0.5-0.6-1-0.6-1.7c0-0.3,0.1-0.6,0.2-0.9c0.1-0.3,0.4-0.6,0.7-0.8c-0.4-0.2-0.6-0.5-0.8-0.8c-0.2-0.3-0.2-0.7-0.2-1
		c0-0.8,0.2-1.4,0.7-1.9s1.1-0.7,1.8-0.7c0.6,0,1.1,0.2,1.5,0.6c0.4,0.4,0.7,0.9,0.8,1.6h-1.2c-0.1-0.3-0.3-0.5-0.4-0.7
		c-0.2-0.2-0.5-0.3-0.8-0.3s-0.6,0.1-0.9,0.4c-0.2,0.2-0.4,0.6-0.4,1s0.1,0.8,0.4,1c0.2,0.2,0.5,0.3,0.9,0.3h0.5v1H411.1z"/>
	<path class="st14" d="M406.8,255.5h-4.4v-1.2h3.3v-1.9c-0.4,0.3-0.8,0.5-1.3,0.5c-0.3,0-0.6-0.1-0.9-0.2c-0.3-0.1-0.5-0.3-0.6-0.4
		c-0.2-0.2-0.4-0.5-0.5-0.8c-0.1-0.2-0.1-0.4-0.1-0.6c0-0.2,0-0.5,0-0.9c0-0.6,0-1,0.1-1.3s0.2-0.6,0.4-0.8c0.2-0.2,0.4-0.4,0.7-0.6
		c0.3-0.2,0.7-0.3,1.1-0.3c0.6,0,1.1,0.2,1.5,0.5c0.5,0.4,0.8,0.9,0.9,1.7h-1.2c-0.1-0.7-0.5-1-1.2-1c-0.3,0-0.5,0.1-0.7,0.2
		c-0.2,0.1-0.3,0.3-0.3,0.4c-0.1,0.2-0.1,0.4-0.1,0.6c0,0.2,0,0.4,0,0.6c0,0.5,0.1,0.9,0.2,1.2c0.1,0.1,0.2,0.3,0.4,0.3
		c0.2,0.1,0.4,0.1,0.6,0.1s0.4-0.1,0.6-0.2c0.2-0.1,0.3-0.3,0.5-0.6h1.1v4.7H406.8z"/>
</g>
<g>
	<path class="st14" d="M366.6,251.9h-0.4c-0.4,0-0.7,0.1-0.9,0.3c-0.2,0.2-0.3,0.5-0.3,0.9s0.1,0.7,0.3,0.9c0.2,0.2,0.5,0.3,0.9,0.3
		c0.3,0,0.5-0.1,0.7-0.3s0.4-0.4,0.4-0.8h1.2c-0.1,0.6-0.3,1.2-0.7,1.6c-0.4,0.4-0.9,0.6-1.5,0.7c-0.8,0-1.4-0.3-1.8-0.7
		c-0.4-0.5-0.6-1-0.6-1.7c0-0.3,0.1-0.6,0.2-0.9c0.1-0.3,0.4-0.6,0.7-0.8c-0.4-0.2-0.6-0.5-0.8-0.8c-0.2-0.3-0.2-0.7-0.2-1
		c0-0.8,0.2-1.4,0.7-1.9s1.1-0.7,1.8-0.7c0.6,0,1.1,0.2,1.5,0.6c0.4,0.4,0.7,0.9,0.8,1.6h-1.2c-0.1-0.3-0.3-0.5-0.4-0.7
		c-0.2-0.2-0.5-0.3-0.8-0.3s-0.6,0.1-0.9,0.4c-0.2,0.2-0.4,0.6-0.4,1s0.1,0.8,0.4,1c0.2,0.2,0.5,0.3,0.9,0.3h0.5v1H366.6z"/>
	<path class="st14" d="M362.4,253.1c0,0.8-0.3,1.4-0.7,1.8c-0.5,0.4-1,0.6-1.6,0.6s-1.1-0.2-1.5-0.5s-0.7-0.8-0.8-1.4h1.2
		c0.2,0.5,0.5,0.7,1.1,0.7c0.8,0,1.1-0.5,1.2-1.3v-0.8c-0.6,0.2-1.1,0.3-1.6,0.3s-1-0.2-1.4-0.6c-0.4-0.4-0.6-1-0.5-1.8v-0.8
		c0-0.8,0.3-1.4,0.7-1.8c0.5-0.4,1-0.6,1.6-0.6s1.2,0.2,1.6,0.6c0.5,0.4,0.7,1,0.7,1.8L362.4,253.1L362.4,253.1z M361.2,249.4
		c0-0.9-0.4-1.3-1.2-1.3c-0.8,0-1.1,0.4-1.2,1.3v0.7c0,0.9,0.4,1.3,1.2,1.3c0.8,0,1.1-0.5,1.2-1.3V249.4z"/>
</g>
<g>
	<path class="st14" d="M321.3,251.9h-0.4c-0.4,0-0.7,0.1-0.9,0.3c-0.2,0.2-0.3,0.5-0.3,0.9s0.1,0.7,0.3,0.9c0.2,0.2,0.5,0.3,0.9,0.3
		c0.3,0,0.5-0.1,0.7-0.3s0.4-0.4,0.4-0.8h1.2c-0.1,0.6-0.3,1.2-0.7,1.6c-0.4,0.4-0.9,0.6-1.5,0.7c-0.8,0-1.4-0.3-1.8-0.7
		c-0.4-0.5-0.6-1-0.6-1.7c0-0.3,0.1-0.6,0.2-0.9c0.1-0.3,0.4-0.6,0.7-0.8c-0.4-0.2-0.6-0.5-0.8-0.8c-0.2-0.3-0.2-0.7-0.2-1
		c0-0.8,0.2-1.4,0.7-1.9s1.1-0.7,1.8-0.7c0.6,0,1.1,0.2,1.5,0.6c0.4,0.4,0.7,0.9,0.8,1.6H322c-0.1-0.3-0.3-0.5-0.4-0.7
		c-0.2-0.2-0.5-0.3-0.8-0.3s-0.6,0.1-0.9,0.4c-0.2,0.2-0.4,0.6-0.4,1s0.1,0.8,0.4,1c0.2,0.2,0.5,0.3,0.9,0.3h0.5L321.3,251.9
		L321.3,251.9z"/>
	<path class="st14" d="M317,255.5h-4.7v-1.2l2.8-7.3h1.3l-2.8,7.3h2.2V253h1.2V255.5z"/>
</g>
<g>
	<path class="st14" d="M276.2,251.9h-0.4c-0.4,0-0.7,0.1-0.9,0.3c-0.2,0.2-0.3,0.5-0.3,0.9s0.1,0.7,0.3,0.9c0.2,0.2,0.5,0.3,0.9,0.3
		c0.3,0,0.5-0.1,0.7-0.3s0.4-0.4,0.4-0.8h1.2c-0.1,0.6-0.3,1.2-0.7,1.6c-0.4,0.4-0.9,0.6-1.5,0.7c-0.8,0-1.4-0.3-1.8-0.7
		c-0.4-0.5-0.6-1-0.6-1.7c0-0.3,0.1-0.6,0.2-0.9c0.1-0.3,0.4-0.6,0.7-0.8c-0.4-0.2-0.6-0.5-0.8-0.8c-0.2-0.3-0.2-0.7-0.2-1
		c0-0.8,0.2-1.4,0.7-1.9s1.1-0.7,1.8-0.7c0.6,0,1.1,0.2,1.5,0.6c0.4,0.4,0.7,0.9,0.8,1.6H277c-0.1-0.3-0.3-0.5-0.4-0.7
		c-0.2-0.2-0.5-0.3-0.8-0.3s-0.6,0.1-0.9,0.4c-0.2,0.2-0.4,0.6-0.4,1s0.1,0.8,0.4,1c0.2,0.2,0.5,0.3,0.9,0.3h0.5v1H276.2z"/>
	<path class="st14" d="M272.3,249.4c0,0.8-0.3,1.5-1,1.9c0.3,0.2,0.5,0.5,0.6,0.8c0.2,0.3,0.3,0.6,0.3,1c0,0.7-0.2,1.3-0.7,1.8
		c-0.4,0.5-1,0.7-1.7,0.7s-1.3-0.2-1.7-0.7c-0.4-0.5-0.7-1.1-0.7-1.8c0-0.4,0.1-0.7,0.2-1c0.2-0.3,0.4-0.5,0.6-0.8
		c-0.7-0.5-1-1.1-1-1.9c0-0.8,0.3-1.4,0.7-1.8c0.5-0.5,1.1-0.7,1.8-0.7c0.7,0,1.3,0.2,1.8,0.7C272,248,272.3,248.7,272.3,249.4z
		 M271.1,249.4c0-0.4-0.1-0.7-0.4-1s-0.6-0.4-0.9-0.4c-0.4,0-0.7,0.1-1,0.4c-0.3,0.3-0.4,0.6-0.4,1s0.1,0.7,0.4,1
		c0.3,0.2,0.6,0.4,1,0.4s0.7-0.1,0.9-0.4C270.9,250.2,271.1,249.8,271.1,249.4z M270.9,253.1c0-0.4-0.1-0.7-0.4-0.9
		c-0.2-0.2-0.5-0.3-0.8-0.3s-0.6,0.1-0.8,0.3c-0.2,0.2-0.4,0.5-0.4,0.9s0.1,0.7,0.4,0.9c0.2,0.2,0.5,0.3,0.8,0.3s0.6-0.1,0.8-0.3
		C270.8,253.8,270.9,253.5,270.9,253.1z"/>
</g>
<g>
	<path class="st14" d="M231.2,251.9h-0.4c-0.4,0-0.7,0.1-0.9,0.3s-0.3,0.5-0.3,0.9s0.1,0.7,0.3,0.9s0.5,0.3,0.9,0.3
		c0.3,0,0.5-0.1,0.7-0.3s0.4-0.4,0.4-0.8h1.2c-0.1,0.6-0.3,1.2-0.7,1.6c-0.4,0.4-0.9,0.6-1.5,0.7c-0.8,0-1.4-0.3-1.8-0.7
		c-0.4-0.5-0.6-1-0.6-1.7c0-0.3,0.1-0.6,0.2-0.9c0.1-0.3,0.4-0.6,0.7-0.8c-0.4-0.2-0.6-0.5-0.8-0.8s-0.2-0.7-0.2-1
		c0-0.8,0.2-1.4,0.7-1.9s1.1-0.7,1.8-0.7c0.6,0,1.1,0.2,1.5,0.6c0.4,0.4,0.7,0.9,0.8,1.6H232c-0.1-0.3-0.3-0.5-0.4-0.7
		c-0.2-0.2-0.5-0.3-0.8-0.3s-0.6,0.1-0.9,0.4c-0.2,0.2-0.4,0.6-0.4,1s0.1,0.8,0.4,1c0.2,0.2,0.5,0.3,0.9,0.3h0.5L231.2,251.9
		L231.2,251.9z"/>
	<path class="st14" d="M227.1,253.1c0,0.8-0.3,1.4-0.7,1.8c-0.5,0.4-1,0.6-1.6,0.6s-1.2-0.2-1.6-0.6c-0.5-0.4-0.7-1-0.7-1.8v-3.8
		c0-0.8,0.3-1.4,0.7-1.8c0.5-0.4,1-0.6,1.6-0.6c0.5,0,1,0.2,1.5,0.5c0.4,0.3,0.7,0.8,0.8,1.4h-1.2c-0.2-0.5-0.5-0.7-1.1-0.7
		c-0.8,0-1.1,0.4-1.2,1.3v0.8c0.6-0.2,1.1-0.3,1.6-0.3s1,0.2,1.4,0.6c0.4,0.4,0.6,1,0.6,1.8v0.8H227.1z M225.9,252.3
		c0-0.9-0.4-1.3-1.2-1.3s-1.1,0.4-1.2,1.3v0.7c0,0.9,0.4,1.3,1.2,1.3s1.1-0.5,1.2-1.3V252.3z"/>
</g>
<g>
	<path class="st14" d="M188.3,249.4l-2.8,6.1h-1.3l2.8-6.1h-2.2v2.5h-1.2v-2.5H183v-1.1h0.7V247h1.2v1.3h3.4L188.3,249.4
		L188.3,249.4z"/>
	<path class="st14" d="M182.2,253.1c0,0.8-0.3,1.4-0.7,1.8c-0.5,0.4-1,0.6-1.6,0.6s-1.2-0.2-1.6-0.6c-0.5-0.4-0.7-1-0.7-1.8v-3.8
		c0-0.8,0.3-1.4,0.7-1.8c0.5-0.4,1-0.6,1.6-0.6s1.2,0.2,1.6,0.6c0.5,0.4,0.7,1,0.7,1.8V253.1z M178.7,253c0,0.9,0.4,1.3,1.2,1.3
		s1.1-0.5,1.2-1.3v-3.6c0-0.9-0.4-1.3-1.2-1.3s-1.1,0.4-1.2,1.3V253z"/>
</g>
<g>
	<rect class="st1" width="615.3" height="7.1"/>
	<rect x="667.1" class="st1" width="262.9" height="7.1"/>
</g>
<g>
	<path class="st9" d="M616.4,617.9h5.3v1.2h-4v2.4h3.4v1.1h-3.4v2.5h4v1.2h-5.3V617.9z"/>
	<path class="st9" d="M623.1,617.9h1.2l3.7,6.1l0,0v-6.1h1.3v8.5h-1.2l-3.7-6.1l0,0v6.1h-1.3V617.9z"/>
	<path class="st9" d="M632.7,619h-2.3v-1.1h5.8v1.1H634v7.4h-1.3V619z"/>
	<path class="st9" d="M637.3,617.9h3.2c0.7,0,1.3,0.2,1.7,0.6c0.5,0.4,0.8,1,0.8,1.8c0,1.2-0.5,1.9-1.6,2.4l1.9,3.8h-1.5l-1.7-3.7
		h-1.6v3.7h-1.3L637.3,617.9L637.3,617.9z M638.6,621.6h1.9c0.5,0,0.8-0.1,1.1-0.4c0.2-0.3,0.3-0.6,0.3-0.9c0-0.4-0.1-0.8-0.4-1
		c-0.2-0.2-0.5-0.3-0.9-0.3h-2L638.6,621.6L638.6,621.6z"/>
	<path class="st9" d="M648.9,624.5h-3.1l-0.6,1.9h-1.3l3-8.5h1l3,8.5h-1.3L648.9,624.5z M648.5,623.4l-1.2-3.7l0,0l-1.2,3.7H648.5z"
		/>
	<path class="st9" d="M652,617.9h2.9c1.1,0,2,0.5,2.5,1.4c0.2,0.3,0.3,0.7,0.4,1c0,0.4,0.1,1,0.1,1.8c0,0.9,0,1.6-0.1,1.9
		c0,0.2-0.1,0.3-0.1,0.5c-0.1,0.1-0.1,0.3-0.2,0.4c-0.2,0.4-0.6,0.7-1,1s-1,0.4-1.6,0.4H652V617.9z M653.2,625.2h1.5
		c0.7,0,1.2-0.2,1.5-0.7c0.1-0.2,0.2-0.4,0.3-0.7c0-0.3,0.1-0.8,0.1-1.6c0-0.7,0-1.3-0.1-1.6c0-0.3-0.2-0.6-0.3-0.8
		c-0.3-0.5-0.8-0.7-1.5-0.7h-1.5V625.2z"/>
	<path class="st9" d="M663.5,624.5h-3.1l-0.6,1.9h-1.3l3-8.5h1l3,8.5h-1.3L663.5,624.5z M663.2,623.4l-1.2-3.7l0,0l-1.2,3.7H663.2z"
		/>
</g>
<g>
	<path class="st9" d="M623.5,24c0.7,0.6,1.4,0.8,2.4,0.9c1.1,0,1.6-0.4,1.6-1.2c0-0.6-0.4-1-1.1-1.1c-0.3,0-0.7-0.1-1.1-0.2
		c-0.7-0.1-1.3-0.4-1.6-0.8c-0.4-0.4-0.6-1-0.6-1.6c0-0.7,0.2-1.3,0.7-1.8s1.1-0.7,2-0.7c1,0,1.9,0.3,2.7,0.9l-0.7,1.1
		c-0.6-0.4-1.3-0.6-2-0.7c-0.4,0-0.7,0.1-1,0.3c-0.3,0.2-0.4,0.5-0.4,0.9c0,0.2,0.1,0.5,0.3,0.7s0.5,0.3,0.9,0.4
		c0.2,0,0.5,0.1,0.9,0.1c0.8,0.1,1.3,0.4,1.7,0.9s0.6,1,0.6,1.6c0,1.6-1,2.5-2.9,2.5c-1.2,0-2.3-0.4-3.2-1.2L623.5,24z"/>
	<path class="st9" d="M634.5,24.2h-3.1l-0.6,1.9h-1.3l3-8.5h1l3,8.5h-1.3L634.5,24.2z M634.1,23.1l-1.2-3.7l0,0l-1.2,3.7H634.1z"/>
	<path class="st9" d="M637.6,17.6h1.3v7.3h4v1.2h-5.3V17.6z"/>
	<path class="st9" d="M644.2,17.6h1.3v8.5h-1.3V17.6z"/>
	<path class="st9" d="M647.3,17.6h2.9c1.1,0,2,0.5,2.5,1.4c0.2,0.3,0.3,0.7,0.4,1c0,0.4,0.1,1,0.1,1.8c0,0.9,0,1.6-0.1,1.9
		c0,0.2-0.1,0.3-0.1,0.5c-0.1,0.1-0.1,0.3-0.2,0.4c-0.2,0.4-0.6,0.7-1,1s-1,0.4-1.6,0.4h-2.8v-8.4H647.3z M648.6,24.9h1.5
		c0.7,0,1.2-0.2,1.5-0.7c0.1-0.2,0.2-0.4,0.3-0.7c0-0.3,0.1-0.8,0.1-1.6c0-0.7,0-1.3-0.1-1.6c0-0.3-0.2-0.6-0.3-0.8
		c-0.3-0.5-0.8-0.7-1.5-0.7h-1.5V24.9z"/>
	<path class="st9" d="M658.9,24.2h-3.1l-0.6,1.9h-1.3l3-8.5h1l3,8.5h-1.3L658.9,24.2z M658.6,23.1l-1.2-3.7l0,0l-1.2,3.7H658.6z"/>
</g>
<g>
	<path class="st9" d="M683.7,91.5V93l-7,3l7,2.9v1.5H673v-1.6h6.7l0,0l-5.1-2.2v-1.3l5.1-2.2l0,0H673v-1.6
		C673,91.5,683.7,91.5,683.7,91.5z"/>
	<path class="st9" d="M678.4,102.5c1.2,0,2.1,0,2.5,0.1s0.8,0.2,1,0.3c0.5,0.3,0.9,0.7,1.3,1.2c0.4,0.5,0.6,1.2,0.6,2
		s-0.2,1.5-0.6,2.1c-0.4,0.5-0.8,0.9-1.3,1.2c-0.3,0.2-0.6,0.3-1,0.4s-1.2,0.1-2.5,0.1c-1.2,0-2,0-2.5-0.1c-0.4-0.1-0.8-0.2-1-0.4
		c-0.5-0.2-0.9-0.6-1.3-1.2c-0.4-0.5-0.6-1.2-0.6-2.1c0-0.8,0.2-1.5,0.6-2c0.4-0.6,0.8-1,1.3-1.2c0.2-0.1,0.3-0.1,0.5-0.2
		s0.3-0.1,0.6-0.1C676.3,102.6,677.1,102.5,678.4,102.5z M678.4,104.1c-1.1,0-1.8,0-2.1,0.1c-0.4,0.1-0.7,0.2-0.9,0.4
		c-0.2,0.2-0.4,0.4-0.5,0.7c-0.2,0.3-0.2,0.6-0.2,1s0.1,0.7,0.2,1c0.1,0.3,0.3,0.5,0.5,0.6c0.2,0.2,0.5,0.3,0.9,0.4s1.1,0.1,2.1,0.1
		c1.1,0,1.8,0,2.2-0.1s0.7-0.2,0.9-0.4c0.2-0.2,0.4-0.4,0.6-0.6c0.1-0.3,0.2-0.6,0.2-1s-0.1-0.7-0.2-1c-0.1-0.3-0.3-0.5-0.6-0.7
		c-0.2-0.2-0.5-0.3-0.9-0.4C680.1,104.1,679.4,104.1,678.4,104.1z"/>
	<path class="st9" d="M682.3,113.5v-2.8h1.4v7.2h-1.4v-2.8H673v-1.6C673,113.5,682.3,113.5,682.3,113.5z"/>
	<path class="st9" d="M678.4,118.7c1.2,0,2.1,0,2.5,0.1s0.8,0.2,1,0.3c0.5,0.3,0.9,0.7,1.3,1.2c0.4,0.5,0.6,1.2,0.6,2
		s-0.2,1.5-0.6,2.1c-0.4,0.5-0.8,0.9-1.3,1.2c-0.3,0.2-0.6,0.3-1,0.4s-1.2,0.1-2.5,0.1c-1.2,0-2,0-2.5-0.1c-0.4-0.1-0.8-0.2-1-0.4
		c-0.5-0.2-0.9-0.6-1.3-1.2c-0.4-0.5-0.6-1.2-0.6-2.1c0-0.8,0.2-1.5,0.6-2c0.4-0.6,0.8-1,1.3-1.2c0.2-0.1,0.3-0.1,0.5-0.2
		s0.3-0.1,0.6-0.1C676.3,118.7,677.1,118.7,678.4,118.7z M678.4,120.2c-1.1,0-1.8,0-2.1,0.1c-0.4,0.1-0.7,0.2-0.9,0.4
		c-0.2,0.2-0.4,0.4-0.5,0.7c-0.2,0.3-0.2,0.6-0.2,1s0.1,0.7,0.2,1c0.1,0.3,0.3,0.5,0.5,0.6c0.2,0.2,0.5,0.3,0.9,0.4s1.1,0.1,2.1,0.1
		c1.1,0,1.8,0,2.2-0.1s0.7-0.2,0.9-0.4c0.2-0.2,0.4-0.4,0.6-0.6c0.1-0.3,0.2-0.6,0.2-1s-0.1-0.7-0.2-1c-0.1-0.3-0.3-0.5-0.6-0.7
		c-0.2-0.2-0.5-0.3-0.9-0.4C680.1,120.3,679.4,120.2,678.4,120.2z"/>
	<path class="st9" d="M675.6,128.3c-0.7,0.8-1.1,1.8-1.1,2.9c0,1.3,0.5,2,1.5,2c0.8,0,1.3-0.4,1.4-1.3c0.1-0.4,0.1-0.9,0.2-1.4
		c0.2-0.9,0.5-1.6,1-2c0.5-0.5,1.2-0.7,2-0.7c0.9,0,1.7,0.3,2.3,0.9c0.6,0.6,0.9,1.4,0.9,2.5c0,1.3-0.4,2.4-1.1,3.4l-1.3-0.9
		c0.5-0.8,0.8-1.6,0.8-2.6c0-0.5-0.1-0.9-0.4-1.2c-0.3-0.3-0.6-0.5-1.2-0.5c-0.3,0-0.6,0.1-0.8,0.3c-0.3,0.2-0.4,0.6-0.5,1.1
		c0,0.3-0.1,0.7-0.2,1.2c-0.1,1-0.5,1.7-1.1,2.1c-0.6,0.5-1.2,0.7-2,0.7c-2-0.1-3.1-1.3-3.1-3.6c0-1.5,0.5-2.8,1.5-3.9L675.6,128.3z
		"/>
</g>
<g>
	<path class="st9" d="M683.7,312v1.5l-7,3l7,2.9v1.5H673v-1.6h6.7l0,0l-5.1-2.2v-1.3l5.1-2.2l0,0H673V312H683.7z"/>
	<path class="st9" d="M678.4,323.1c1.2,0,2.1,0,2.5,0.1s0.8,0.2,1,0.3c0.5,0.2,0.9,0.7,1.3,1.2c0.4,0.5,0.6,1.2,0.6,2
		s-0.2,1.5-0.6,2.1c-0.4,0.5-0.8,0.9-1.3,1.2c-0.3,0.2-0.6,0.3-1,0.4s-1.2,0.1-2.5,0.1c-1.2,0-2,0-2.5-0.1c-0.4-0.1-0.8-0.2-1-0.4
		c-0.5-0.2-0.9-0.6-1.3-1.2c-0.4-0.5-0.6-1.2-0.6-2.1c0-0.8,0.2-1.5,0.6-2c0.4-0.6,0.8-1,1.3-1.2c0.2-0.1,0.3-0.1,0.5-0.2
		s0.3-0.1,0.6-0.1C676.3,323.1,677.1,323.1,678.4,323.1z M678.4,324.6c-1.1,0-1.8,0-2.1,0.1c-0.4,0.1-0.7,0.2-0.9,0.4
		c-0.2,0.2-0.4,0.4-0.5,0.7c-0.2,0.3-0.2,0.6-0.2,1s0.1,0.7,0.2,1c0.1,0.3,0.3,0.5,0.5,0.6c0.2,0.2,0.5,0.3,0.9,0.4s1.1,0.1,2.1,0.1
		c1.1,0,1.8,0,2.2-0.1s0.7-0.2,0.9-0.4c0.2-0.2,0.4-0.4,0.6-0.6c0.1-0.3,0.2-0.6,0.2-1s-0.1-0.7-0.2-1c-0.1-0.3-0.3-0.5-0.6-0.7
		c-0.2-0.2-0.5-0.3-0.9-0.4C680.1,324.7,679.4,324.6,678.4,324.6z"/>
	<path class="st9" d="M682.3,334v-2.8h1.4v7.2h-1.4v-2.8H673V334H682.3z"/>
	<path class="st9" d="M678.4,339.2c1.2,0,2.1,0,2.5,0.1s0.8,0.2,1,0.3c0.5,0.3,0.9,0.7,1.3,1.2c0.4,0.5,0.6,1.2,0.6,2
		s-0.2,1.5-0.6,2.1c-0.4,0.5-0.8,0.9-1.3,1.2c-0.3,0.2-0.6,0.3-1,0.4s-1.2,0.1-2.5,0.1c-1.2,0-2,0-2.5-0.1c-0.4-0.1-0.8-0.2-1-0.4
		c-0.5-0.2-0.9-0.6-1.3-1.2c-0.4-0.5-0.6-1.2-0.6-2.1c0-0.8,0.2-1.5,0.6-2c0.4-0.6,0.8-1,1.3-1.2c0.2-0.1,0.3-0.1,0.5-0.2
		s0.3-0.1,0.6-0.1C676.3,339.2,677.1,339.2,678.4,339.2z M678.4,340.7c-1.1,0-1.8,0-2.1,0.1c-0.4,0.1-0.7,0.2-0.9,0.4
		c-0.2,0.2-0.4,0.4-0.5,0.7c-0.2,0.3-0.2,0.6-0.2,1s0.1,0.7,0.2,1c0.1,0.3,0.3,0.5,0.5,0.6c0.2,0.2,0.5,0.3,0.9,0.4s1.1,0.1,2.1,0.1
		c1.1,0,1.8,0,2.2-0.1s0.7-0.2,0.9-0.4c0.2-0.2,0.4-0.4,0.6-0.6c0.1-0.3,0.2-0.6,0.2-1s-0.1-0.7-0.2-1c-0.1-0.3-0.3-0.5-0.6-0.7
		c-0.2-0.2-0.5-0.3-0.9-0.4C680.1,340.8,679.4,340.7,678.4,340.7z"/>
	<path class="st9" d="M675.6,348.8c-0.7,0.8-1.1,1.8-1.1,2.9c0,1.3,0.5,2,1.5,2c0.8,0,1.3-0.4,1.4-1.3c0.1-0.4,0.1-0.9,0.2-1.4
		c0.2-0.9,0.5-1.6,1-2c0.5-0.5,1.2-0.7,2-0.7c0.9,0,1.7,0.3,2.3,0.9s0.9,1.4,0.9,2.5c0,1.3-0.4,2.4-1.1,3.4l-1.3-0.9
		c0.5-0.8,0.8-1.6,0.8-2.6c0-0.5-0.1-0.9-0.4-1.2c-0.3-0.3-0.6-0.5-1.2-0.5c-0.3,0-0.6,0.1-0.8,0.3c-0.3,0.2-0.4,0.6-0.5,1.1
		c0,0.3-0.1,0.7-0.2,1.2c-0.1,1-0.5,1.7-1.1,2.2s-1.2,0.7-2,0.7c-2-0.1-3.1-1.3-3.1-3.6c0-1.5,0.5-2.8,1.5-3.9L675.6,348.8z"/>
</g>
<g>
	<path class="st9" d="M683.7,516.7v1.5l-7,3l7,2.9v1.5H673V524h6.7l0,0l-5.1-2.2v-1.3l5.1-2.2l0,0H673v-1.6L683.7,516.7L683.7,516.7
		z"/>
	<path class="st9" d="M678.4,527.7c1.2,0,2.1,0,2.5,0.1s0.8,0.2,1,0.3c0.5,0.2,0.9,0.7,1.3,1.2c0.4,0.5,0.6,1.2,0.6,2
		s-0.2,1.5-0.6,2.1c-0.4,0.5-0.8,0.9-1.3,1.2c-0.3,0.2-0.6,0.3-1,0.4c-0.4,0.1-1.2,0.1-2.5,0.1c-1.2,0-2,0-2.5-0.1
		c-0.4-0.1-0.8-0.2-1-0.4c-0.5-0.2-0.9-0.6-1.3-1.2c-0.4-0.5-0.6-1.2-0.6-2.1c0-0.8,0.2-1.5,0.6-2c0.4-0.6,0.8-1,1.3-1.2
		c0.2-0.1,0.3-0.1,0.5-0.2c0.2-0.1,0.3-0.1,0.6-0.1C676.3,527.7,677.1,527.7,678.4,527.7z M678.4,529.3c-1.1,0-1.8,0-2.1,0.1
		c-0.4,0.1-0.7,0.2-0.9,0.4s-0.4,0.4-0.5,0.7c-0.2,0.3-0.2,0.6-0.2,1s0.1,0.7,0.2,1c0.1,0.3,0.3,0.5,0.5,0.6
		c0.2,0.2,0.5,0.3,0.9,0.4c0.4,0.1,1.1,0.1,2.1,0.1c1.1,0,1.8,0,2.2-0.1s0.7-0.2,0.9-0.4s0.4-0.4,0.6-0.6c0.1-0.3,0.2-0.6,0.2-1
		s-0.1-0.7-0.2-1c-0.1-0.3-0.3-0.5-0.6-0.7c-0.2-0.2-0.5-0.3-0.9-0.4C680.1,529.3,679.4,529.3,678.4,529.3z"/>
	<path class="st9" d="M682.3,538.7v-2.8h1.4v7.2h-1.4v-2.8H673v-1.6L682.3,538.7L682.3,538.7z"/>
	<path class="st9" d="M678.4,543.8c1.2,0,2.1,0,2.5,0.1s0.8,0.2,1,0.3c0.5,0.3,0.9,0.7,1.3,1.2c0.4,0.5,0.6,1.2,0.6,2
		s-0.2,1.5-0.6,2.1c-0.4,0.5-0.8,0.9-1.3,1.2c-0.3,0.2-0.6,0.3-1,0.4c-0.4,0.1-1.2,0.1-2.5,0.1c-1.2,0-2,0-2.5-0.1
		c-0.4-0.1-0.8-0.2-1-0.4c-0.5-0.2-0.9-0.6-1.3-1.2c-0.4-0.5-0.6-1.2-0.6-2.1c0-0.8,0.2-1.5,0.6-2c0.4-0.6,0.8-1,1.3-1.2
		c0.2-0.1,0.3-0.1,0.5-0.2c0.2-0.1,0.3-0.1,0.6-0.1C676.3,543.8,677.1,543.8,678.4,543.8z M678.4,545.4c-1.1,0-1.8,0-2.1,0.1
		c-0.4,0.1-0.7,0.2-0.9,0.4s-0.4,0.4-0.5,0.7c-0.2,0.3-0.2,0.6-0.2,1s0.1,0.7,0.2,1c0.1,0.3,0.3,0.5,0.5,0.6
		c0.2,0.2,0.5,0.3,0.9,0.4c0.4,0.1,1.1,0.1,2.1,0.1c1.1,0,1.8,0,2.2-0.1s0.7-0.2,0.9-0.4s0.4-0.4,0.6-0.6c0.1-0.3,0.2-0.6,0.2-1
		s-0.1-0.7-0.2-1c-0.1-0.3-0.3-0.5-0.6-0.7c-0.2-0.2-0.5-0.3-0.9-0.4C680.1,545.4,679.4,545.4,678.4,545.4z"/>
	<path class="st9" d="M675.6,553.4c-0.7,0.8-1.1,1.8-1.1,2.9c0,1.3,0.5,2,1.5,2c0.8,0,1.3-0.4,1.4-1.3c0.1-0.4,0.1-0.9,0.2-1.4
		c0.2-0.9,0.5-1.6,1-2c0.5-0.5,1.2-0.7,2-0.7c0.9,0,1.7,0.3,2.3,0.9c0.6,0.6,0.9,1.4,0.9,2.5c0,1.3-0.4,2.4-1.1,3.4l-1.3-0.9
		c0.5-0.8,0.8-1.6,0.8-2.6c0-0.5-0.1-0.9-0.4-1.2c-0.3-0.3-0.6-0.5-1.2-0.5c-0.3,0-0.6,0.1-0.8,0.3c-0.3,0.2-0.4,0.6-0.5,1.1
		c0,0.3-0.1,0.7-0.2,1.2c-0.1,1-0.5,1.7-1.1,2.2s-1.2,0.7-2,0.7c-2-0.1-3.1-1.3-3.1-3.6c0-1.5,0.5-2.8,1.5-3.9L675.6,553.4z"/>
</g>
<g>
	<g>
		<path class="st2" d="M400.9,479.1L400.9,479.1h-19.1l6-6c0.3-0.3,0.5-0.7,0.5-1.1s-0.2-0.8-0.5-1.1l-0.9-0.9
			c-0.3-0.3-0.7-0.5-1.1-0.5s-0.8,0.2-1.1,0.5l-10.3,10.3c-0.3,0.3-0.5,0.7-0.5,1.1s0.2,0.8,0.5,1.1l10.3,10.3
			c0.3,0.3,0.7,0.5,1.1,0.5s0.8-0.2,1.1-0.5l0.9-0.9c0.3-0.3,0.5-0.7,0.5-1.1s-0.2-0.8-0.5-1.1l-6.1-6.1H401c0.9,0,1.6-0.7,1.6-1.6
			v-1.3C402.5,479.8,401.8,479.1,400.9,479.1z"/>
	</g>
</g>
<g>
	<g>
		<path class="st2" d="M372.5,162.8L372.5,162.8h19.1l-6,6c-0.3,0.3-0.5,0.7-0.5,1.1s0.2,0.8,0.5,1.1l0.9,0.9
			c0.3,0.3,0.7,0.5,1.1,0.5s0.8-0.2,1.1-0.5l10.3-10.3c0.3-0.3,0.5-0.7,0.5-1.1c0-0.4-0.2-0.8-0.5-1.1l-10.3-10.3
			c-0.3-0.3-0.7-0.5-1.1-0.5s-0.8,0.2-1.1,0.5l-0.9,0.9c-0.3,0.3-0.5,0.7-0.5,1.1c0,0.4,0.2,0.8,0.5,1.1l6.1,6.1h-19.2
			c-0.9,0-1.6,0.7-1.6,1.6v1.3C370.9,162.1,371.6,162.8,372.5,162.8z"/>
	</g>
</g>
<g>
	<g>
		<line class="st15" x1="696.6" y1="540.9" x2="699.6" y2="540.9"/>
		<line class="st16" x1="705.5" y1="540.8" x2="915.4" y2="539.9"/>
		<line class="st15" x1="918.4" y1="539.9" x2="921.4" y2="539.9"/>
	</g>
</g>
<g>
	<g>
		<line class="st15" x1="695.9" y1="329.1" x2="698.9" y2="329.1"/>
		<line class="st17" x1="704.8" y1="329.1" x2="913.7" y2="328.2"/>
		<line class="st15" x1="916.7" y1="328.2" x2="919.7" y2="328.2"/>
	</g>
</g>
<g>
	<g>
		<line class="st15" x1="695.9" y1="112.9" x2="698.9" y2="112.9"/>
		<line class="st17" x1="704.8" y1="112.9" x2="913.7" y2="112"/>
		<line class="st15" x1="916.7" y1="112" x2="919.7" y2="112"/>
	</g>
</g>
<g>
	<g>
		<g>
			<path class="st2" d="M132.7,487L132.7,487v-15.9l5,5c0.2,0.2,0.6,0.4,0.9,0.4s0.7-0.1,0.9-0.4l0.8-0.8c0.2-0.2,0.4-0.6,0.4-0.9
				s-0.1-0.7-0.4-0.9l-8.6-8.6c-0.2-0.2-0.6-0.4-0.9-0.4c-0.4,0-0.7,0.1-0.9,0.4l-8.6,8.6c-0.2,0.2-0.4,0.6-0.4,0.9s0.1,0.7,0.4,0.9
				l0.8,0.8c0.2,0.2,0.6,0.4,0.9,0.4s0.7-0.1,0.9-0.4l5.1-5.1v16c0,0.7,0.6,1.3,1.3,1.3h1.1C132.1,488.4,132.7,487.8,132.7,487z"/>
		</g>
	</g>
	<path class="st2" d="M146.5,489.2h-16.7c-0.5,0-0.9-0.4-0.9-0.9v-1.9c0-0.5,0.4-0.9,0.9-0.9h16.7c0.5,0,0.9,0.4,0.9,0.9v1.9
		C147.4,488.8,147,489.2,146.5,489.2z"/>
</g>
<g>
	<g>
		<g>
			<path class="st2" d="M124,163.2L124,163.2h15.9l-5,5c-0.2,0.2-0.4,0.6-0.4,0.9s0.1,0.7,0.4,0.9l0.8,0.8c0.2,0.2,0.6,0.4,0.9,0.4
				c0.3,0,0.7-0.1,0.9-0.4l8.6-8.6c0.2-0.2,0.4-0.6,0.4-0.9c0-0.4-0.1-0.7-0.4-0.9l-8.6-8.6c-0.2-0.2-0.6-0.4-0.9-0.4
				c-0.3,0-0.7,0.1-0.9,0.4l-0.8,0.8c-0.2,0.2-0.4,0.6-0.4,0.9c0,0.3,0.1,0.7,0.4,0.9l5.1,5.1h-16c-0.7,0-1.3,0.6-1.3,1.3v1.1
				C122.6,162.6,123.2,163.2,124,163.2z"/>
		</g>
	</g>
	<path class="st2" d="M121.8,177v-16.7c0-0.5,0.4-0.9,0.9-0.9h1.9c0.5,0,0.9,0.4,0.9,0.9V177c0,0.5-0.4,0.9-0.9,0.9h-1.9
		C122.2,177.9,121.8,177.5,121.8,177z"/>
</g>
<g>
	<g>
		<g>
			<path class="st2" d="M634,162.2L634,162.2v-15.9l5,5c0.2,0.2,0.6,0.4,0.9,0.4s0.7-0.1,0.9-0.4l0.8-0.8c0.2-0.2,0.4-0.6,0.4-0.9
				c0-0.3-0.1-0.7-0.4-0.9l-8.6-8.6c-0.2-0.2-0.6-0.4-0.9-0.4c-0.4,0-0.7,0.1-0.9,0.4l-8.6,8.6c-0.2,0.2-0.4,0.6-0.4,0.9
				c0,0.3,0.1,0.7,0.4,0.9l0.8,0.8c0.2,0.2,0.6,0.4,0.9,0.4c0.3,0,0.7-0.1,0.9-0.4l5.1-5.1v16c0,0.7,0.6,1.3,1.3,1.3h1.1
				C633.4,163.6,634,162.9,634,162.2z"/>
		</g>
	</g>
	<path class="st2" d="M616.5,161.1h16.7c0.5,0,0.9,0.4,0.9,0.9v1.9c0,0.5-0.4,0.9-0.9,0.9h-16.7c-0.5,0-0.9-0.4-0.9-0.9V162
		C615.6,161.5,616,161.1,616.5,161.1z"/>
</g>
<g>
	<g>
		<g>
			<path class="st2" d="M640.8,479.5L640.8,479.5h-15.9l5-5c0.2-0.2,0.4-0.6,0.4-0.9s-0.1-0.7-0.4-0.9l-0.8-0.8
				c-0.2-0.2-0.6-0.4-0.9-0.4c-0.3,0-0.7,0.1-0.9,0.4l-8.6,8.6c-0.2,0.2-0.4,0.6-0.4,0.9c0,0.4,0.1,0.7,0.4,0.9l8.6,8.6
				c0.2,0.2,0.6,0.4,0.9,0.4c0.3,0,0.7-0.1,0.9-0.4l0.8-0.8c0.2-0.2,0.4-0.6,0.4-0.9s-0.1-0.7-0.4-0.9l-5.1-5.1h16
				c0.7,0,1.3-0.6,1.3-1.3v-1.1C642.2,480.1,641.5,479.5,640.8,479.5z"/>
		</g>
	</g>
	<path class="st2" d="M639.7,497v-16.7c0-0.5,0.4-0.9,0.9-0.9h1.9c0.5,0,0.9,0.4,0.9,0.9V497c0,0.5-0.4,0.9-0.9,0.9h-1.9
		C640.1,497.9,639.7,497.5,639.7,497z"/>
</g>
<g id="Capa_2_1_">
	<rect x="1517.5" y="14.9" class="st0" width="800" height="600"/>
	<rect x="1517.5" y="14.9" class="st1" width="800" height="7.1"/>
	<rect x="1517.5" y="607.1" class="st1" width="566.4" height="7.9"/>
	<rect x="2148.7" y="607.1" class="st1" width="168.8" height="7.9"/>
	<rect x="1517.6" y="15" class="st1" width="9.4" height="600"/>
	<rect x="2310.5" y="15" class="st1" width="7" height="600"/>
	<rect x="1680.8" y="22" class="st18" width="45" height="90"/>
	<rect x="1725.8" y="22" class="st6" width="45" height="90"/>
	<rect x="1770.8" y="22" class="st18" width="45" height="90"/>
	<rect x="1815.8" y="22" class="st6" width="45" height="90"/>
	<rect x="1860.8" y="22" class="st18" width="45" height="90"/>
	<rect x="1905.8" y="22" class="st6" width="45" height="90"/>
	<rect x="1950.8" y="22" class="st18" width="45" height="90"/>
	<rect x="1995.8" y="22" class="st6" width="45" height="90"/>
	<rect x="2040.8" y="22" class="st18" width="45" height="90"/>
	<rect x="1635.8" y="22" class="st6" width="45" height="90"/>
	<rect x="1716.4" y="221" class="st18" width="45" height="90"/>
	<rect x="1761.4" y="221" class="st6" width="45" height="90"/>
	<rect x="1806.4" y="221" class="st18" width="45" height="90"/>
	<rect x="1851.4" y="221" class="st6" width="45" height="90"/>
	<rect x="1896.4" y="221" class="st18" width="45" height="90"/>
	<rect x="1941.4" y="221" class="st6" width="45" height="90"/>
	<rect x="1986.4" y="221" class="st18" width="45" height="90"/>
	<rect x="2031.4" y="221" class="st6" width="45" height="90"/>
	<rect x="1671.4" y="221" class="st6" width="45" height="90"/>
	<rect x="2031.5" y="311" class="st18" width="45" height="90"/>
	<rect x="1986.5" y="311" class="st6" width="45" height="90"/>
	<rect x="1941.5" y="311" class="st18" width="45" height="90"/>
	<rect x="1896.5" y="311" class="st6" width="45" height="90"/>
	<rect x="1851.5" y="311" class="st18" width="45" height="90"/>
	<rect x="1806.5" y="311" class="st6" width="45" height="90"/>
	<rect x="1761.5" y="311" class="st18" width="45" height="90"/>
	<rect x="1716.5" y="311" class="st6" width="45" height="90"/>
	<rect x="2076.2" y="221" class="st18" width="45" height="90"/>
	<rect x="2076.1" y="311" class="st6" width="45" height="90"/>
	<rect x="1671.5" y="311" class="st18" width="45" height="90"/>
	<rect x="2085.7" y="22.1" class="st6" width="45" height="90"/>
	<rect x="2265.8" y="539.6" class="st7" width="44.8" height="22.5"/>
	<rect x="2265.8" y="494.6" class="st7" width="44.8" height="22.5"/>
	<rect x="2265.8" y="584.6" class="st7" width="44.9" height="22.5"/>
	<rect x="2265.8" y="562.1" class="st8" width="44.8" height="22.5"/>
	<rect x="2265.8" y="517.1" class="st8" width="44.8" height="22.5"/>
	<rect x="2265.8" y="449.6" class="st7" width="44.8" height="22.5"/>
	<rect x="2265.8" y="404.6" class="st7" width="44.8" height="22.5"/>
	<rect x="2265.8" y="472.1" class="st8" width="44.8" height="22.5"/>
	<rect x="2265.8" y="427.1" class="st8" width="44.8" height="22.5"/>
	<rect x="2265.8" y="359.6" class="st7" width="44.8" height="22.5"/>
	<rect x="2265.8" y="314.6" class="st7" width="44.8" height="22.5"/>
	<rect x="2265.8" y="382.1" class="st8" width="44.8" height="22.5"/>
	<rect x="2265.8" y="337.1" class="st8" width="44.8" height="22.5"/>
	<rect x="2265.7" y="269.5" class="st7" width="44.8" height="22.5"/>
	<rect x="2265.7" y="224.5" class="st7" width="44.9" height="22.5"/>
	<rect x="2265.7" y="179.5" class="st7" width="44.9" height="22.5"/>
	<rect x="2265.7" y="134.5" class="st7" width="44.9" height="22.5"/>
	<rect x="2265.8" y="89.6" class="st7" width="44.9" height="22.5"/>
	<rect x="2265.7" y="292" class="st8" width="44.8" height="22.5"/>
	<rect x="2265.7" y="247" class="st8" width="44.9" height="22.5"/>
	<rect x="2265.7" y="202" class="st8" width="44.9" height="22.5"/>
	<rect x="2265.7" y="157" class="st8" width="44.9" height="22.5"/>
	<rect x="2265.7" y="112" class="st8" width="44.9" height="22.5"/>
	<rect x="2182.5" y="67" class="st7" width="44.8" height="22.5"/>
	<rect x="2182.4" y="112.1" class="st7" width="44.8" height="22.5"/>
	<rect x="2182.4" y="22" class="st7" width="44.9" height="22.5"/>
	<rect x="2182.4" y="44.6" class="st8" width="44.8" height="22.5"/>
	<rect x="2182.5" y="89.5" class="st8" width="44.8" height="22.5"/>
	<rect x="2182.4" y="224.5" class="st7" width="44.8" height="22.5"/>
	<rect x="2182.4" y="269.5" class="st7" width="44.8" height="22.5"/>
	<rect x="2182.4" y="202" class="st8" width="44.8" height="22.5"/>
	<rect x="2182.4" y="247" class="st8" width="44.8" height="22.5"/>
	<rect x="2182.4" y="314.5" class="st7" width="44.8" height="22.5"/>
	<rect x="2182.4" y="359.5" class="st7" width="44.8" height="22.5"/>
	<rect x="2182.4" y="292" class="st8" width="44.8" height="22.5"/>
	<rect x="2182.4" y="337" class="st8" width="44.8" height="22.5"/>
	<rect x="2182.5" y="404.6" class="st7" width="44.8" height="22.5"/>
	<rect x="2182.4" y="449.6" class="st7" width="44.9" height="22.5"/>
	<rect x="2182.4" y="494.6" class="st7" width="44.9" height="22.5"/>
	<rect x="2182.4" y="539.6" class="st7" width="44.9" height="22.5"/>
	<rect x="2182.3" y="584.5" class="st7" width="44.9" height="22.5"/>
	<rect x="2182.5" y="382.1" class="st8" width="44.8" height="22.5"/>
	<rect x="2182.4" y="427.1" class="st8" width="44.9" height="22.5"/>
	<rect x="2182.4" y="472.1" class="st8" width="44.9" height="22.5"/>
	<rect x="2182.4" y="517.1" class="st8" width="44.9" height="22.5"/>
	<rect x="2182.4" y="562.1" class="st8" width="44.9" height="22.5"/>
	<rect x="2265.7" y="44.6" class="st7" width="44.9" height="22.5"/>
	<rect x="2265.7" y="67.1" class="st8" width="44.9" height="22.5"/>
	<rect x="2265.7" y="22.1" class="st8" width="44.9" height="22.5"/>
	<rect x="1677.9" y="517" class="st18" width="45" height="90"/>
	<rect x="1722.9" y="517" class="st6" width="45" height="90"/>
	<rect x="1767.9" y="517" class="st18" width="45" height="90"/>
	<rect x="1812.9" y="517" class="st6" width="45" height="90"/>
	<rect x="1857.9" y="517" class="st18" width="45" height="90"/>
	<rect x="1902.9" y="517" class="st6" width="45" height="90"/>
	<rect x="1947.9" y="517" class="st18" width="45" height="90"/>
	<rect x="1992.9" y="517" class="st6" width="45" height="90"/>
	<rect x="2037.9" y="517" class="st18" width="45" height="90"/>
	<rect x="1632.9" y="517" class="st6" width="45" height="90"/>
	<rect x="1526.9" y="157.9" class="st18" width="90" height="45"/>
	<rect x="1526.9" y="202.9" class="st6" width="90" height="45"/>
	<rect x="1526.9" y="247.9" class="st18" width="90" height="45"/>
	<rect x="1526.9" y="292.9" class="st6" width="90" height="45"/>
	<rect x="1526.9" y="337.9" class="st18" width="90" height="45"/>
	<rect x="1526.9" y="382.9" class="st6" width="90" height="45"/>
	<rect x="1526.9" y="427.9" class="st18" width="90" height="45"/>
	<rect x="1526.9" y="472.9" class="st6" width="90" height="45"/>
	<rect x="1526.9" y="112.9" class="st6" width="90" height="45"/>
</g>
</svg>
